%TF.GenerationSoftware,KiCad,Pcbnew,5.1.6-c6e7f7d~87~ubuntu16.04.1*%
%TF.CreationDate,2020-08-09T11:03:00+09:00*%
%TF.ProjectId,Akashi-07,416b6173-6869-42d3-9037-2e6b69636164,rev?*%
%TF.SameCoordinates,Original*%
%TF.FileFunction,Legend,Bot*%
%TF.FilePolarity,Positive*%
%FSLAX46Y46*%
G04 Gerber Fmt 4.6, Leading zero omitted, Abs format (unit mm)*
G04 Created by KiCad (PCBNEW 5.1.6-c6e7f7d~87~ubuntu16.04.1) date 2020-08-09 11:03:00*
%MOMM*%
%LPD*%
G01*
G04 APERTURE LIST*
%ADD10C,0.150000*%
G04 APERTURE END LIST*
D10*
X156938571Y-79796666D02*
X156462380Y-79796666D01*
X157033809Y-80082380D02*
X156700476Y-79082380D01*
X156367142Y-80082380D01*
X156033809Y-80082380D02*
X156033809Y-79082380D01*
X155938571Y-79701428D02*
X155652857Y-80082380D01*
X155652857Y-79415714D02*
X156033809Y-79796666D01*
X154795714Y-80082380D02*
X154795714Y-79558571D01*
X154843333Y-79463333D01*
X154938571Y-79415714D01*
X155129047Y-79415714D01*
X155224285Y-79463333D01*
X154795714Y-80034761D02*
X154890952Y-80082380D01*
X155129047Y-80082380D01*
X155224285Y-80034761D01*
X155271904Y-79939523D01*
X155271904Y-79844285D01*
X155224285Y-79749047D01*
X155129047Y-79701428D01*
X154890952Y-79701428D01*
X154795714Y-79653809D01*
X154367142Y-80034761D02*
X154271904Y-80082380D01*
X154081428Y-80082380D01*
X153986190Y-80034761D01*
X153938571Y-79939523D01*
X153938571Y-79891904D01*
X153986190Y-79796666D01*
X154081428Y-79749047D01*
X154224285Y-79749047D01*
X154319523Y-79701428D01*
X154367142Y-79606190D01*
X154367142Y-79558571D01*
X154319523Y-79463333D01*
X154224285Y-79415714D01*
X154081428Y-79415714D01*
X153986190Y-79463333D01*
X153510000Y-80082380D02*
X153510000Y-79082380D01*
X153081428Y-80082380D02*
X153081428Y-79558571D01*
X153129047Y-79463333D01*
X153224285Y-79415714D01*
X153367142Y-79415714D01*
X153462380Y-79463333D01*
X153510000Y-79510952D01*
X152605238Y-80082380D02*
X152605238Y-79415714D01*
X152605238Y-79082380D02*
X152652857Y-79130000D01*
X152605238Y-79177619D01*
X152557619Y-79130000D01*
X152605238Y-79082380D01*
X152605238Y-79177619D01*
X152129047Y-79701428D02*
X151367142Y-79701428D01*
X150700476Y-79082380D02*
X150605238Y-79082380D01*
X150510000Y-79130000D01*
X150462380Y-79177619D01*
X150414761Y-79272857D01*
X150367142Y-79463333D01*
X150367142Y-79701428D01*
X150414761Y-79891904D01*
X150462380Y-79987142D01*
X150510000Y-80034761D01*
X150605238Y-80082380D01*
X150700476Y-80082380D01*
X150795714Y-80034761D01*
X150843333Y-79987142D01*
X150890952Y-79891904D01*
X150938571Y-79701428D01*
X150938571Y-79463333D01*
X150890952Y-79272857D01*
X150843333Y-79177619D01*
X150795714Y-79130000D01*
X150700476Y-79082380D01*
X150033809Y-79082380D02*
X149367142Y-79082380D01*
X149795714Y-80082380D01*
X148224285Y-79987142D02*
X148176666Y-80034761D01*
X148224285Y-80082380D01*
X148271904Y-80034761D01*
X148224285Y-79987142D01*
X148224285Y-80082380D01*
X148224285Y-79463333D02*
X148176666Y-79510952D01*
X148224285Y-79558571D01*
X148271904Y-79510952D01*
X148224285Y-79463333D01*
X148224285Y-79558571D01*
X146700476Y-80463333D02*
X146748095Y-80415714D01*
X146843333Y-80272857D01*
X146890952Y-80177619D01*
X146938571Y-80034761D01*
X146986190Y-79796666D01*
X146986190Y-79606190D01*
X146938571Y-79368095D01*
X146890952Y-79225238D01*
X146843333Y-79130000D01*
X146748095Y-78987142D01*
X146700476Y-78939523D01*
X145748095Y-79987142D02*
X145795714Y-80034761D01*
X145938571Y-80082380D01*
X146033809Y-80082380D01*
X146176666Y-80034761D01*
X146271904Y-79939523D01*
X146319523Y-79844285D01*
X146367142Y-79653809D01*
X146367142Y-79510952D01*
X146319523Y-79320476D01*
X146271904Y-79225238D01*
X146176666Y-79130000D01*
X146033809Y-79082380D01*
X145938571Y-79082380D01*
X145795714Y-79130000D01*
X145748095Y-79177619D01*
X145414761Y-80463333D02*
X145367142Y-80415714D01*
X145271904Y-80272857D01*
X145224285Y-80177619D01*
X145176666Y-80034761D01*
X145129047Y-79796666D01*
X145129047Y-79606190D01*
X145176666Y-79368095D01*
X145224285Y-79225238D01*
X145271904Y-79130000D01*
X145367142Y-78987142D01*
X145414761Y-78939523D01*
X143938571Y-79177619D02*
X143890952Y-79130000D01*
X143795714Y-79082380D01*
X143557619Y-79082380D01*
X143462380Y-79130000D01*
X143414761Y-79177619D01*
X143367142Y-79272857D01*
X143367142Y-79368095D01*
X143414761Y-79510952D01*
X143986190Y-80082380D01*
X143367142Y-80082380D01*
X142748095Y-79082380D02*
X142652857Y-79082380D01*
X142557619Y-79130000D01*
X142510000Y-79177619D01*
X142462380Y-79272857D01*
X142414761Y-79463333D01*
X142414761Y-79701428D01*
X142462380Y-79891904D01*
X142510000Y-79987142D01*
X142557619Y-80034761D01*
X142652857Y-80082380D01*
X142748095Y-80082380D01*
X142843333Y-80034761D01*
X142890952Y-79987142D01*
X142938571Y-79891904D01*
X142986190Y-79701428D01*
X142986190Y-79463333D01*
X142938571Y-79272857D01*
X142890952Y-79177619D01*
X142843333Y-79130000D01*
X142748095Y-79082380D01*
X142033809Y-79177619D02*
X141986190Y-79130000D01*
X141890952Y-79082380D01*
X141652857Y-79082380D01*
X141557619Y-79130000D01*
X141510000Y-79177619D01*
X141462380Y-79272857D01*
X141462380Y-79368095D01*
X141510000Y-79510952D01*
X142081428Y-80082380D01*
X141462380Y-80082380D01*
X140843333Y-79082380D02*
X140748095Y-79082380D01*
X140652857Y-79130000D01*
X140605238Y-79177619D01*
X140557619Y-79272857D01*
X140510000Y-79463333D01*
X140510000Y-79701428D01*
X140557619Y-79891904D01*
X140605238Y-79987142D01*
X140652857Y-80034761D01*
X140748095Y-80082380D01*
X140843333Y-80082380D01*
X140938571Y-80034761D01*
X140986190Y-79987142D01*
X141033809Y-79891904D01*
X141081428Y-79701428D01*
X141081428Y-79463333D01*
X141033809Y-79272857D01*
X140986190Y-79177619D01*
X140938571Y-79130000D01*
X140843333Y-79082380D01*
X139367142Y-80034761D02*
X139224285Y-80082380D01*
X138986190Y-80082380D01*
X138890952Y-80034761D01*
X138843333Y-79987142D01*
X138795714Y-79891904D01*
X138795714Y-79796666D01*
X138843333Y-79701428D01*
X138890952Y-79653809D01*
X138986190Y-79606190D01*
X139176666Y-79558571D01*
X139271904Y-79510952D01*
X139319523Y-79463333D01*
X139367142Y-79368095D01*
X139367142Y-79272857D01*
X139319523Y-79177619D01*
X139271904Y-79130000D01*
X139176666Y-79082380D01*
X138938571Y-79082380D01*
X138795714Y-79130000D01*
X137986190Y-80034761D02*
X138081428Y-80082380D01*
X138271904Y-80082380D01*
X138367142Y-80034761D01*
X138414761Y-79939523D01*
X138414761Y-79558571D01*
X138367142Y-79463333D01*
X138271904Y-79415714D01*
X138081428Y-79415714D01*
X137986190Y-79463333D01*
X137938571Y-79558571D01*
X137938571Y-79653809D01*
X138414761Y-79749047D01*
X137510000Y-80082380D02*
X137510000Y-79415714D01*
X137510000Y-79082380D02*
X137557619Y-79130000D01*
X137510000Y-79177619D01*
X137462380Y-79130000D01*
X137510000Y-79082380D01*
X137510000Y-79177619D01*
X137033809Y-80082380D02*
X137033809Y-79415714D01*
X137033809Y-79082380D02*
X137081428Y-79130000D01*
X137033809Y-79177619D01*
X136986190Y-79130000D01*
X137033809Y-79082380D01*
X137033809Y-79177619D01*
X136129047Y-80034761D02*
X136224285Y-80082380D01*
X136414761Y-80082380D01*
X136510000Y-80034761D01*
X136557619Y-79987142D01*
X136605238Y-79891904D01*
X136605238Y-79606190D01*
X136557619Y-79510952D01*
X136510000Y-79463333D01*
X136414761Y-79415714D01*
X136224285Y-79415714D01*
X136129047Y-79463333D01*
X135700476Y-80082380D02*
X135700476Y-79082380D01*
X135271904Y-80082380D02*
X135271904Y-79558571D01*
X135319523Y-79463333D01*
X135414761Y-79415714D01*
X135557619Y-79415714D01*
X135652857Y-79463333D01*
X135700476Y-79510952D01*
X134795714Y-80082380D02*
X134795714Y-79415714D01*
X134795714Y-79082380D02*
X134843333Y-79130000D01*
X134795714Y-79177619D01*
X134748095Y-79130000D01*
X134795714Y-79082380D01*
X134795714Y-79177619D01*
X133557619Y-80082380D02*
X133557619Y-79082380D01*
X133557619Y-79558571D02*
X132986190Y-79558571D01*
X132986190Y-80082380D02*
X132986190Y-79082380D01*
X132367142Y-80082380D02*
X132462380Y-80034761D01*
X132510000Y-79987142D01*
X132557619Y-79891904D01*
X132557619Y-79606190D01*
X132510000Y-79510952D01*
X132462380Y-79463333D01*
X132367142Y-79415714D01*
X132224285Y-79415714D01*
X132129047Y-79463333D01*
X132081428Y-79510952D01*
X132033809Y-79606190D01*
X132033809Y-79891904D01*
X132081428Y-79987142D01*
X132129047Y-80034761D01*
X132224285Y-80082380D01*
X132367142Y-80082380D01*
X131605238Y-80082380D02*
X131605238Y-79415714D01*
X131605238Y-79606190D02*
X131557619Y-79510952D01*
X131510000Y-79463333D01*
X131414761Y-79415714D01*
X131319523Y-79415714D01*
X130986190Y-80082380D02*
X130986190Y-79415714D01*
X130986190Y-79082380D02*
X131033809Y-79130000D01*
X130986190Y-79177619D01*
X130938571Y-79130000D01*
X130986190Y-79082380D01*
X130986190Y-79177619D01*
X130129047Y-80034761D02*
X130224285Y-80082380D01*
X130414761Y-80082380D01*
X130510000Y-80034761D01*
X130557619Y-79939523D01*
X130557619Y-79558571D01*
X130510000Y-79463333D01*
X130414761Y-79415714D01*
X130224285Y-79415714D01*
X130129047Y-79463333D01*
X130081428Y-79558571D01*
X130081428Y-79653809D01*
X130557619Y-79749047D01*
X151771904Y-81827619D02*
X151867142Y-81780000D01*
X151962380Y-81684761D01*
X152105238Y-81541904D01*
X152200476Y-81494285D01*
X152295714Y-81494285D01*
X152248095Y-81732380D02*
X152343333Y-81684761D01*
X152438571Y-81589523D01*
X152486190Y-81399047D01*
X152486190Y-81065714D01*
X152438571Y-80875238D01*
X152343333Y-80780000D01*
X152248095Y-80732380D01*
X152057619Y-80732380D01*
X151962380Y-80780000D01*
X151867142Y-80875238D01*
X151819523Y-81065714D01*
X151819523Y-81399047D01*
X151867142Y-81589523D01*
X151962380Y-81684761D01*
X152057619Y-81732380D01*
X152248095Y-81732380D01*
X151438571Y-81684761D02*
X151295714Y-81732380D01*
X151057619Y-81732380D01*
X150962380Y-81684761D01*
X150914761Y-81637142D01*
X150867142Y-81541904D01*
X150867142Y-81446666D01*
X150914761Y-81351428D01*
X150962380Y-81303809D01*
X151057619Y-81256190D01*
X151248095Y-81208571D01*
X151343333Y-81160952D01*
X151390952Y-81113333D01*
X151438571Y-81018095D01*
X151438571Y-80922857D01*
X151390952Y-80827619D01*
X151343333Y-80780000D01*
X151248095Y-80732380D01*
X151010000Y-80732380D01*
X150867142Y-80780000D01*
X150438571Y-81732380D02*
X150438571Y-80732380D01*
X150200476Y-80732380D01*
X150057619Y-80780000D01*
X149962380Y-80875238D01*
X149914761Y-80970476D01*
X149867142Y-81160952D01*
X149867142Y-81303809D01*
X149914761Y-81494285D01*
X149962380Y-81589523D01*
X150057619Y-81684761D01*
X150200476Y-81732380D01*
X150438571Y-81732380D01*
X148676666Y-81065714D02*
X148676666Y-82065714D01*
X148676666Y-81113333D02*
X148581428Y-81065714D01*
X148390952Y-81065714D01*
X148295714Y-81113333D01*
X148248095Y-81160952D01*
X148200476Y-81256190D01*
X148200476Y-81541904D01*
X148248095Y-81637142D01*
X148295714Y-81684761D01*
X148390952Y-81732380D01*
X148581428Y-81732380D01*
X148676666Y-81684761D01*
X147771904Y-81732380D02*
X147771904Y-81065714D01*
X147771904Y-81256190D02*
X147724285Y-81160952D01*
X147676666Y-81113333D01*
X147581428Y-81065714D01*
X147486190Y-81065714D01*
X147010000Y-81732380D02*
X147105238Y-81684761D01*
X147152857Y-81637142D01*
X147200476Y-81541904D01*
X147200476Y-81256190D01*
X147152857Y-81160952D01*
X147105238Y-81113333D01*
X147010000Y-81065714D01*
X146867142Y-81065714D01*
X146771904Y-81113333D01*
X146724285Y-81160952D01*
X146676666Y-81256190D01*
X146676666Y-81541904D01*
X146724285Y-81637142D01*
X146771904Y-81684761D01*
X146867142Y-81732380D01*
X147010000Y-81732380D01*
X146390952Y-81065714D02*
X146010000Y-81065714D01*
X146248095Y-80732380D02*
X146248095Y-81589523D01*
X146200476Y-81684761D01*
X146105238Y-81732380D01*
X146010000Y-81732380D01*
X145533809Y-81732380D02*
X145629047Y-81684761D01*
X145676666Y-81637142D01*
X145724285Y-81541904D01*
X145724285Y-81256190D01*
X145676666Y-81160952D01*
X145629047Y-81113333D01*
X145533809Y-81065714D01*
X145390952Y-81065714D01*
X145295714Y-81113333D01*
X145248095Y-81160952D01*
X145200476Y-81256190D01*
X145200476Y-81541904D01*
X145248095Y-81637142D01*
X145295714Y-81684761D01*
X145390952Y-81732380D01*
X145533809Y-81732380D01*
X144914761Y-81065714D02*
X144533809Y-81065714D01*
X144771904Y-80732380D02*
X144771904Y-81589523D01*
X144724285Y-81684761D01*
X144629047Y-81732380D01*
X144533809Y-81732380D01*
X144295714Y-81065714D02*
X144057619Y-81732380D01*
X143819523Y-81065714D02*
X144057619Y-81732380D01*
X144152857Y-81970476D01*
X144200476Y-82018095D01*
X144295714Y-82065714D01*
X143438571Y-81065714D02*
X143438571Y-82065714D01*
X143438571Y-81113333D02*
X143343333Y-81065714D01*
X143152857Y-81065714D01*
X143057619Y-81113333D01*
X143010000Y-81160952D01*
X142962380Y-81256190D01*
X142962380Y-81541904D01*
X143010000Y-81637142D01*
X143057619Y-81684761D01*
X143152857Y-81732380D01*
X143343333Y-81732380D01*
X143438571Y-81684761D01*
X142152857Y-81684761D02*
X142248095Y-81732380D01*
X142438571Y-81732380D01*
X142533809Y-81684761D01*
X142581428Y-81589523D01*
X142581428Y-81208571D01*
X142533809Y-81113333D01*
X142438571Y-81065714D01*
X142248095Y-81065714D01*
X142152857Y-81113333D01*
X142105238Y-81208571D01*
X142105238Y-81303809D01*
X142581428Y-81399047D01*
X141010000Y-81065714D02*
X140771904Y-81732380D01*
X140533809Y-81065714D01*
X139771904Y-81684761D02*
X139867142Y-81732380D01*
X140057619Y-81732380D01*
X140152857Y-81684761D01*
X140200476Y-81589523D01*
X140200476Y-81208571D01*
X140152857Y-81113333D01*
X140057619Y-81065714D01*
X139867142Y-81065714D01*
X139771904Y-81113333D01*
X139724285Y-81208571D01*
X139724285Y-81303809D01*
X140200476Y-81399047D01*
X139295714Y-81732380D02*
X139295714Y-81065714D01*
X139295714Y-81256190D02*
X139248095Y-81160952D01*
X139200476Y-81113333D01*
X139105238Y-81065714D01*
X139010000Y-81065714D01*
X137390952Y-81732380D02*
X137962380Y-81732380D01*
X137676666Y-81732380D02*
X137676666Y-80732380D01*
X137771904Y-80875238D01*
X137867142Y-80970476D01*
X137962380Y-81018095D01*
X136962380Y-81637142D02*
X136914761Y-81684761D01*
X136962380Y-81732380D01*
X137010000Y-81684761D01*
X136962380Y-81637142D01*
X136962380Y-81732380D01*
X136295714Y-80732380D02*
X136200476Y-80732380D01*
X136105238Y-80780000D01*
X136057619Y-80827619D01*
X136010000Y-80922857D01*
X135962380Y-81113333D01*
X135962380Y-81351428D01*
X136010000Y-81541904D01*
X136057619Y-81637142D01*
X136105238Y-81684761D01*
X136200476Y-81732380D01*
X136295714Y-81732380D01*
X136390952Y-81684761D01*
X136438571Y-81637142D01*
X136486190Y-81541904D01*
X136533809Y-81351428D01*
X136533809Y-81113333D01*
X136486190Y-80922857D01*
X136438571Y-80827619D01*
X136390952Y-80780000D01*
X136295714Y-80732380D01*
X135533809Y-81637142D02*
X135486190Y-81684761D01*
X135533809Y-81732380D01*
X135581428Y-81684761D01*
X135533809Y-81637142D01*
X135533809Y-81732380D01*
X134533809Y-81732380D02*
X135105238Y-81732380D01*
X134819523Y-81732380D02*
X134819523Y-80732380D01*
X134914761Y-80875238D01*
X135010000Y-80970476D01*
X135105238Y-81018095D01*
X160771904Y-83382380D02*
X160771904Y-82382380D01*
X160343333Y-83382380D02*
X160343333Y-82858571D01*
X160390952Y-82763333D01*
X160486190Y-82715714D01*
X160629047Y-82715714D01*
X160724285Y-82763333D01*
X160771904Y-82810952D01*
X160010000Y-82715714D02*
X159629047Y-82715714D01*
X159867142Y-82382380D02*
X159867142Y-83239523D01*
X159819523Y-83334761D01*
X159724285Y-83382380D01*
X159629047Y-83382380D01*
X159438571Y-82715714D02*
X159057619Y-82715714D01*
X159295714Y-82382380D02*
X159295714Y-83239523D01*
X159248095Y-83334761D01*
X159152857Y-83382380D01*
X159057619Y-83382380D01*
X158724285Y-82715714D02*
X158724285Y-83715714D01*
X158724285Y-82763333D02*
X158629047Y-82715714D01*
X158438571Y-82715714D01*
X158343333Y-82763333D01*
X158295714Y-82810952D01*
X158248095Y-82906190D01*
X158248095Y-83191904D01*
X158295714Y-83287142D01*
X158343333Y-83334761D01*
X158438571Y-83382380D01*
X158629047Y-83382380D01*
X158724285Y-83334761D01*
X157867142Y-83334761D02*
X157771904Y-83382380D01*
X157581428Y-83382380D01*
X157486190Y-83334761D01*
X157438571Y-83239523D01*
X157438571Y-83191904D01*
X157486190Y-83096666D01*
X157581428Y-83049047D01*
X157724285Y-83049047D01*
X157819523Y-83001428D01*
X157867142Y-82906190D01*
X157867142Y-82858571D01*
X157819523Y-82763333D01*
X157724285Y-82715714D01*
X157581428Y-82715714D01*
X157486190Y-82763333D01*
X157010000Y-83287142D02*
X156962380Y-83334761D01*
X157010000Y-83382380D01*
X157057619Y-83334761D01*
X157010000Y-83287142D01*
X157010000Y-83382380D01*
X157010000Y-82763333D02*
X156962380Y-82810952D01*
X157010000Y-82858571D01*
X157057619Y-82810952D01*
X157010000Y-82763333D01*
X157010000Y-82858571D01*
X155819523Y-82334761D02*
X156676666Y-83620476D01*
X154771904Y-82334761D02*
X155629047Y-83620476D01*
X154010000Y-82715714D02*
X154010000Y-83525238D01*
X154057619Y-83620476D01*
X154105238Y-83668095D01*
X154200476Y-83715714D01*
X154343333Y-83715714D01*
X154438571Y-83668095D01*
X154010000Y-83334761D02*
X154105238Y-83382380D01*
X154295714Y-83382380D01*
X154390952Y-83334761D01*
X154438571Y-83287142D01*
X154486190Y-83191904D01*
X154486190Y-82906190D01*
X154438571Y-82810952D01*
X154390952Y-82763333D01*
X154295714Y-82715714D01*
X154105238Y-82715714D01*
X154010000Y-82763333D01*
X153533809Y-83382380D02*
X153533809Y-82715714D01*
X153533809Y-82382380D02*
X153581428Y-82430000D01*
X153533809Y-82477619D01*
X153486190Y-82430000D01*
X153533809Y-82382380D01*
X153533809Y-82477619D01*
X153200476Y-82715714D02*
X152819523Y-82715714D01*
X153057619Y-82382380D02*
X153057619Y-83239523D01*
X153010000Y-83334761D01*
X152914761Y-83382380D01*
X152819523Y-83382380D01*
X152486190Y-83382380D02*
X152486190Y-82382380D01*
X152057619Y-83382380D02*
X152057619Y-82858571D01*
X152105238Y-82763333D01*
X152200476Y-82715714D01*
X152343333Y-82715714D01*
X152438571Y-82763333D01*
X152486190Y-82810952D01*
X151152857Y-82715714D02*
X151152857Y-83382380D01*
X151581428Y-82715714D02*
X151581428Y-83239523D01*
X151533809Y-83334761D01*
X151438571Y-83382380D01*
X151295714Y-83382380D01*
X151200476Y-83334761D01*
X151152857Y-83287142D01*
X150676666Y-83382380D02*
X150676666Y-82382380D01*
X150676666Y-82763333D02*
X150581428Y-82715714D01*
X150390952Y-82715714D01*
X150295714Y-82763333D01*
X150248095Y-82810952D01*
X150200476Y-82906190D01*
X150200476Y-83191904D01*
X150248095Y-83287142D01*
X150295714Y-83334761D01*
X150390952Y-83382380D01*
X150581428Y-83382380D01*
X150676666Y-83334761D01*
X149771904Y-83287142D02*
X149724285Y-83334761D01*
X149771904Y-83382380D01*
X149819523Y-83334761D01*
X149771904Y-83287142D01*
X149771904Y-83382380D01*
X148867142Y-83334761D02*
X148962380Y-83382380D01*
X149152857Y-83382380D01*
X149248095Y-83334761D01*
X149295714Y-83287142D01*
X149343333Y-83191904D01*
X149343333Y-82906190D01*
X149295714Y-82810952D01*
X149248095Y-82763333D01*
X149152857Y-82715714D01*
X148962380Y-82715714D01*
X148867142Y-82763333D01*
X148295714Y-83382380D02*
X148390952Y-83334761D01*
X148438571Y-83287142D01*
X148486190Y-83191904D01*
X148486190Y-82906190D01*
X148438571Y-82810952D01*
X148390952Y-82763333D01*
X148295714Y-82715714D01*
X148152857Y-82715714D01*
X148057619Y-82763333D01*
X148010000Y-82810952D01*
X147962380Y-82906190D01*
X147962380Y-83191904D01*
X148010000Y-83287142D01*
X148057619Y-83334761D01*
X148152857Y-83382380D01*
X148295714Y-83382380D01*
X147533809Y-83382380D02*
X147533809Y-82715714D01*
X147533809Y-82810952D02*
X147486190Y-82763333D01*
X147390952Y-82715714D01*
X147248095Y-82715714D01*
X147152857Y-82763333D01*
X147105238Y-82858571D01*
X147105238Y-83382380D01*
X147105238Y-82858571D02*
X147057619Y-82763333D01*
X146962380Y-82715714D01*
X146819523Y-82715714D01*
X146724285Y-82763333D01*
X146676666Y-82858571D01*
X146676666Y-83382380D01*
X145486190Y-82334761D02*
X146343333Y-83620476D01*
X145200476Y-83334761D02*
X145105238Y-83382380D01*
X144914761Y-83382380D01*
X144819523Y-83334761D01*
X144771904Y-83239523D01*
X144771904Y-83191904D01*
X144819523Y-83096666D01*
X144914761Y-83049047D01*
X145057619Y-83049047D01*
X145152857Y-83001428D01*
X145200476Y-82906190D01*
X145200476Y-82858571D01*
X145152857Y-82763333D01*
X145057619Y-82715714D01*
X144914761Y-82715714D01*
X144819523Y-82763333D01*
X143914761Y-82715714D02*
X143914761Y-83382380D01*
X144343333Y-82715714D02*
X144343333Y-83239523D01*
X144295714Y-83334761D01*
X144200476Y-83382380D01*
X144057619Y-83382380D01*
X143962380Y-83334761D01*
X143914761Y-83287142D01*
X143438571Y-83382380D02*
X143438571Y-82715714D01*
X143438571Y-82382380D02*
X143486190Y-82430000D01*
X143438571Y-82477619D01*
X143390952Y-82430000D01*
X143438571Y-82382380D01*
X143438571Y-82477619D01*
X142962380Y-83382380D02*
X142962380Y-82382380D01*
X142867142Y-83001428D02*
X142581428Y-83382380D01*
X142581428Y-82715714D02*
X142962380Y-83096666D01*
X141724285Y-83382380D02*
X141724285Y-82858571D01*
X141771904Y-82763333D01*
X141867142Y-82715714D01*
X142057619Y-82715714D01*
X142152857Y-82763333D01*
X141724285Y-83334761D02*
X141819523Y-83382380D01*
X142057619Y-83382380D01*
X142152857Y-83334761D01*
X142200476Y-83239523D01*
X142200476Y-83144285D01*
X142152857Y-83049047D01*
X142057619Y-83001428D01*
X141819523Y-83001428D01*
X141724285Y-82953809D01*
X141248095Y-82715714D02*
X141248095Y-83382380D01*
X141248095Y-82810952D02*
X141200476Y-82763333D01*
X141105238Y-82715714D01*
X140962380Y-82715714D01*
X140867142Y-82763333D01*
X140819523Y-82858571D01*
X140819523Y-83382380D01*
X139914761Y-82715714D02*
X139914761Y-83382380D01*
X140152857Y-82334761D02*
X140390952Y-83049047D01*
X139771904Y-83049047D01*
X138962380Y-82715714D02*
X138962380Y-83525238D01*
X139010000Y-83620476D01*
X139057619Y-83668095D01*
X139152857Y-83715714D01*
X139295714Y-83715714D01*
X139390952Y-83668095D01*
X138962380Y-83334761D02*
X139057619Y-83382380D01*
X139248095Y-83382380D01*
X139343333Y-83334761D01*
X139390952Y-83287142D01*
X139438571Y-83191904D01*
X139438571Y-82906190D01*
X139390952Y-82810952D01*
X139343333Y-82763333D01*
X139248095Y-82715714D01*
X139057619Y-82715714D01*
X138962380Y-82763333D01*
X138486190Y-83382380D02*
X138486190Y-82715714D01*
X138486190Y-82382380D02*
X138533809Y-82430000D01*
X138486190Y-82477619D01*
X138438571Y-82430000D01*
X138486190Y-82382380D01*
X138486190Y-82477619D01*
X138152857Y-82715714D02*
X137771904Y-82715714D01*
X138010000Y-82382380D02*
X138010000Y-83239523D01*
X137962380Y-83334761D01*
X137867142Y-83382380D01*
X137771904Y-83382380D01*
X137438571Y-83382380D02*
X137438571Y-82382380D01*
X137010000Y-83382380D02*
X137010000Y-82858571D01*
X137057619Y-82763333D01*
X137152857Y-82715714D01*
X137295714Y-82715714D01*
X137390952Y-82763333D01*
X137438571Y-82810952D01*
X136105238Y-82715714D02*
X136105238Y-83382380D01*
X136533809Y-82715714D02*
X136533809Y-83239523D01*
X136486190Y-83334761D01*
X136390952Y-83382380D01*
X136248095Y-83382380D01*
X136152857Y-83334761D01*
X136105238Y-83287142D01*
X135629047Y-83382380D02*
X135629047Y-82382380D01*
X135629047Y-82763333D02*
X135533809Y-82715714D01*
X135343333Y-82715714D01*
X135248095Y-82763333D01*
X135200476Y-82810952D01*
X135152857Y-82906190D01*
X135152857Y-83191904D01*
X135200476Y-83287142D01*
X135248095Y-83334761D01*
X135343333Y-83382380D01*
X135533809Y-83382380D01*
X135629047Y-83334761D01*
X134010000Y-82334761D02*
X134867142Y-83620476D01*
X133724285Y-83096666D02*
X133248095Y-83096666D01*
X133819523Y-83382380D02*
X133486190Y-82382380D01*
X133152857Y-83382380D01*
X132819523Y-83382380D02*
X132819523Y-82382380D01*
X132724285Y-83001428D02*
X132438571Y-83382380D01*
X132438571Y-82715714D02*
X132819523Y-83096666D01*
X131581428Y-83382380D02*
X131581428Y-82858571D01*
X131629047Y-82763333D01*
X131724285Y-82715714D01*
X131914761Y-82715714D01*
X132010000Y-82763333D01*
X131581428Y-83334761D02*
X131676666Y-83382380D01*
X131914761Y-83382380D01*
X132010000Y-83334761D01*
X132057619Y-83239523D01*
X132057619Y-83144285D01*
X132010000Y-83049047D01*
X131914761Y-83001428D01*
X131676666Y-83001428D01*
X131581428Y-82953809D01*
X131152857Y-83334761D02*
X131057619Y-83382380D01*
X130867142Y-83382380D01*
X130771904Y-83334761D01*
X130724285Y-83239523D01*
X130724285Y-83191904D01*
X130771904Y-83096666D01*
X130867142Y-83049047D01*
X131010000Y-83049047D01*
X131105238Y-83001428D01*
X131152857Y-82906190D01*
X131152857Y-82858571D01*
X131105238Y-82763333D01*
X131010000Y-82715714D01*
X130867142Y-82715714D01*
X130771904Y-82763333D01*
X130295714Y-83382380D02*
X130295714Y-82382380D01*
X129867142Y-83382380D02*
X129867142Y-82858571D01*
X129914761Y-82763333D01*
X130010000Y-82715714D01*
X130152857Y-82715714D01*
X130248095Y-82763333D01*
X130295714Y-82810952D01*
X129390952Y-83382380D02*
X129390952Y-82715714D01*
X129390952Y-82382380D02*
X129438571Y-82430000D01*
X129390952Y-82477619D01*
X129343333Y-82430000D01*
X129390952Y-82382380D01*
X129390952Y-82477619D01*
X128914761Y-83001428D02*
X128152857Y-83001428D01*
X127486190Y-82382380D02*
X127390952Y-82382380D01*
X127295714Y-82430000D01*
X127248095Y-82477619D01*
X127200476Y-82572857D01*
X127152857Y-82763333D01*
X127152857Y-83001428D01*
X127200476Y-83191904D01*
X127248095Y-83287142D01*
X127295714Y-83334761D01*
X127390952Y-83382380D01*
X127486190Y-83382380D01*
X127581428Y-83334761D01*
X127629047Y-83287142D01*
X127676666Y-83191904D01*
X127724285Y-83001428D01*
X127724285Y-82763333D01*
X127676666Y-82572857D01*
X127629047Y-82477619D01*
X127581428Y-82430000D01*
X127486190Y-82382380D01*
X126819523Y-82382380D02*
X126152857Y-82382380D01*
X126581428Y-83382380D01*
M02*
