%TF.GenerationSoftware,KiCad,Pcbnew,5.1.6-c6e7f7d~87~ubuntu16.04.1*%
%TF.CreationDate,2020-07-20T15:11:06+09:00*%
%TF.ProjectId,Akashi-07,416b6173-6869-42d3-9037-2e6b69636164,rev?*%
%TF.SameCoordinates,Original*%
%TF.FileFunction,Soldermask,Top*%
%TF.FilePolarity,Negative*%
%FSLAX46Y46*%
G04 Gerber Fmt 4.6, Leading zero omitted, Abs format (unit mm)*
G04 Created by KiCad (PCBNEW 5.1.6-c6e7f7d~87~ubuntu16.04.1) date 2020-07-20 15:11:06*
%MOMM*%
%LPD*%
G01*
G04 APERTURE LIST*
%ADD10C,1.700000*%
%ADD11O,1.700000X1.700000*%
%ADD12R,1.100000X2.600000*%
%ADD13R,2.100000X4.100000*%
%ADD14C,0.100000*%
%ADD15R,3.100000X2.080000*%
%ADD16R,1.800000X1.800000*%
%ADD17O,1.800000X1.800000*%
%ADD18C,2.900000*%
%ADD19C,3.100000*%
%ADD20R,1.700000X1.700000*%
%ADD21R,1.427899X0.339400*%
%ADD22R,1.550000X0.550000*%
%ADD23R,1.500000X0.400000*%
%ADD24C,1.500000*%
%ADD25O,1.500000X1.500000*%
%ADD26R,3.100000X3.100000*%
%ADD27C,2.300000*%
%ADD28C,2.100000*%
G04 APERTURE END LIST*
D10*
%TO.C,L1*%
X164465000Y-93980000D03*
D11*
X164465000Y-99060000D03*
%TD*%
D12*
%TO.C,U5*%
X158980000Y-112295000D03*
X157480000Y-112295000D03*
X155980000Y-112295000D03*
D13*
X157480000Y-116255000D03*
D14*
G36*
X156386574Y-114330000D02*
G01*
X156953240Y-113480000D01*
X158006760Y-113480000D01*
X158573426Y-114330000D01*
X156386574Y-114330000D01*
G37*
%TD*%
D10*
%TO.C,C1*%
X124460000Y-81835000D03*
X124460000Y-76835000D03*
%TD*%
D15*
%TO.C,X1*%
X115570000Y-74930000D03*
X115570000Y-80190000D03*
X120770000Y-80190000D03*
X120770000Y-74930000D03*
%TD*%
D10*
%TO.C,C12*%
X124460000Y-101600000D03*
X124460000Y-96600000D03*
%TD*%
D16*
%TO.C,JP2*%
X128270000Y-104140000D03*
D17*
X128270000Y-101600000D03*
X128270000Y-99060000D03*
%TD*%
D16*
%TO.C,JP1*%
X142240000Y-106045000D03*
D17*
X142240000Y-103505000D03*
X142240000Y-100965000D03*
%TD*%
D18*
%TO.C,J3*%
X116110000Y-112750000D03*
X116110000Y-118250000D03*
X118110000Y-120650000D03*
%TD*%
D16*
%TO.C,J6*%
X153416000Y-73660000D03*
D17*
X150876000Y-73660000D03*
X148336000Y-73660000D03*
X145796000Y-73660000D03*
X143256000Y-73660000D03*
X140716000Y-73660000D03*
X138176000Y-73660000D03*
X135636000Y-73660000D03*
X133096000Y-73660000D03*
X130556000Y-73660000D03*
%TD*%
D19*
%TO.C,TP4*%
X143510000Y-95885000D03*
%TD*%
%TO.C,TP3*%
X143510000Y-90805000D03*
%TD*%
D20*
%TO.C,U4*%
X139065000Y-106680000D03*
D11*
X131445000Y-99060000D03*
X139065000Y-104140000D03*
X131445000Y-101600000D03*
X139065000Y-101600000D03*
X131445000Y-104140000D03*
X139065000Y-99060000D03*
X131445000Y-106680000D03*
%TD*%
D21*
%TO.C,U3*%
X153651348Y-99499999D03*
X153651348Y-100000001D03*
X153651348Y-100500000D03*
X153651348Y-100999999D03*
X153651348Y-101500001D03*
X149224652Y-101500001D03*
X149224652Y-100999999D03*
X149224652Y-100500000D03*
X149224652Y-100000001D03*
X149224652Y-99499999D03*
%TD*%
D22*
%TO.C,U2*%
X148815000Y-89490000D03*
X148815000Y-90140000D03*
X148815000Y-90790000D03*
X148815000Y-91440000D03*
X148815000Y-92090000D03*
X148815000Y-92740000D03*
X148815000Y-93390000D03*
X154715000Y-93390000D03*
X154715000Y-92740000D03*
X154715000Y-92090000D03*
X154715000Y-91440000D03*
X154715000Y-90790000D03*
X154715000Y-90140000D03*
X154715000Y-89490000D03*
%TD*%
D23*
%TO.C,U1*%
X134960000Y-88000000D03*
X134960000Y-88500000D03*
X134960000Y-89000000D03*
X134960000Y-89500000D03*
X134960000Y-90000000D03*
X139360000Y-90000000D03*
X139360000Y-89500000D03*
X139360000Y-89000000D03*
X139360000Y-88500000D03*
X139360000Y-88000000D03*
%TD*%
D19*
%TO.C,TP6*%
X158750000Y-92710000D03*
%TD*%
%TO.C,TP5*%
X158750000Y-97790000D03*
%TD*%
%TO.C,TP2*%
X143510000Y-85725000D03*
%TD*%
%TO.C,TP1*%
X158750000Y-78105000D03*
%TD*%
D24*
%TO.C,R6*%
X124460000Y-104140000D03*
D25*
X124460000Y-106680000D03*
%TD*%
D24*
%TO.C,R5*%
X145415000Y-106045000D03*
D25*
X145415000Y-103505000D03*
%TD*%
D24*
%TO.C,R4*%
X165735000Y-88900000D03*
D25*
X168275000Y-88900000D03*
%TD*%
D24*
%TO.C,R3*%
X160020000Y-88900000D03*
D25*
X162560000Y-88900000D03*
%TD*%
D24*
%TO.C,R2*%
X128270000Y-77470000D03*
D25*
X130810000Y-77470000D03*
%TD*%
D24*
%TO.C,R1*%
X135890000Y-77470000D03*
D25*
X133350000Y-77470000D03*
%TD*%
D16*
%TO.C,J7*%
X175260000Y-73660000D03*
D17*
X172720000Y-73660000D03*
X170180000Y-73660000D03*
X167640000Y-73660000D03*
X165100000Y-73660000D03*
X162560000Y-73660000D03*
X160020000Y-73660000D03*
X157480000Y-73660000D03*
%TD*%
D16*
%TO.C,J5*%
X162560000Y-121920000D03*
D17*
X165100000Y-121920000D03*
X167640000Y-121920000D03*
X170180000Y-121920000D03*
X172720000Y-121920000D03*
X175260000Y-121920000D03*
%TD*%
D16*
%TO.C,J4*%
X139700000Y-121920000D03*
D17*
X142240000Y-121920000D03*
X144780000Y-121920000D03*
X147320000Y-121920000D03*
X149860000Y-121920000D03*
X152400000Y-121920000D03*
X154940000Y-121920000D03*
X157480000Y-121920000D03*
%TD*%
D26*
%TO.C,J2*%
X175260000Y-96520000D03*
D19*
X175260000Y-91440000D03*
%TD*%
D27*
%TO.C,J1*%
X177800000Y-111760000D03*
X172720000Y-111760000D03*
X172720000Y-106680000D03*
X177800000Y-106680000D03*
D28*
X175260000Y-109220000D03*
%TD*%
D20*
%TO.C,C19*%
X166370000Y-113030000D03*
D10*
X166370000Y-115530000D03*
%TD*%
%TO.C,C18*%
X160020000Y-107950000D03*
X165020000Y-107950000D03*
%TD*%
%TO.C,C17*%
X154940000Y-107950000D03*
X149940000Y-107950000D03*
%TD*%
D20*
%TO.C,C16*%
X148590000Y-113030000D03*
D10*
X148590000Y-115530000D03*
%TD*%
D20*
%TO.C,C15*%
X119380000Y-91440000D03*
D10*
X116880000Y-91440000D03*
%TD*%
D20*
%TO.C,C14*%
X119380000Y-101600000D03*
D10*
X116880000Y-101600000D03*
%TD*%
D20*
%TO.C,C13*%
X134620000Y-113070000D03*
D10*
X134620000Y-115570000D03*
%TD*%
%TO.C,C10*%
X128270000Y-108585000D03*
X128270000Y-113585000D03*
%TD*%
%TO.C,C11*%
X142240000Y-109855000D03*
X142240000Y-114855000D03*
%TD*%
%TO.C,C9*%
X153670000Y-104140000D03*
X148670000Y-104140000D03*
%TD*%
%TO.C,C8*%
X154940000Y-86360000D03*
X149940000Y-86360000D03*
%TD*%
D20*
%TO.C,C7*%
X171450000Y-83185000D03*
D10*
X171450000Y-80685000D03*
%TD*%
%TO.C,C6*%
X162560000Y-85090000D03*
X162560000Y-80090000D03*
%TD*%
%TO.C,C5*%
X167005000Y-102870000D03*
X172005000Y-102870000D03*
%TD*%
%TO.C,C4*%
X132080000Y-85090000D03*
X127080000Y-85090000D03*
%TD*%
%TO.C,C3*%
X137160000Y-92710000D03*
X132160000Y-92710000D03*
%TD*%
%TO.C,C2*%
X132080000Y-88900000D03*
X127080000Y-88900000D03*
%TD*%
M02*
