%TF.GenerationSoftware,KiCad,Pcbnew,5.1.6-c6e7f7d~87~ubuntu16.04.1*%
%TF.CreationDate,2020-08-09T11:03:00+09:00*%
%TF.ProjectId,Akashi-07,416b6173-6869-42d3-9037-2e6b69636164,rev?*%
%TF.SameCoordinates,Original*%
%TF.FileFunction,Legend,Top*%
%TF.FilePolarity,Positive*%
%FSLAX46Y46*%
G04 Gerber Fmt 4.6, Leading zero omitted, Abs format (unit mm)*
G04 Created by KiCad (PCBNEW 5.1.6-c6e7f7d~87~ubuntu16.04.1) date 2020-08-09 11:03:00*
%MOMM*%
%LPD*%
G01*
G04 APERTURE LIST*
%ADD10C,0.150000*%
%ADD11C,0.200000*%
%ADD12C,0.120000*%
%ADD13C,0.152400*%
G04 APERTURE END LIST*
D10*
X112577619Y-75215714D02*
X112577619Y-74644285D01*
X112577619Y-74930000D02*
X113577619Y-74930000D01*
X113434761Y-74834761D01*
X113339523Y-74739523D01*
X113291904Y-74644285D01*
X125452380Y-115912380D02*
X125452380Y-116626666D01*
X125404761Y-116769523D01*
X125309523Y-116864761D01*
X125166666Y-116912380D01*
X125071428Y-116912380D01*
X125928571Y-116912380D02*
X125928571Y-115912380D01*
X126309523Y-115912380D01*
X126404761Y-115960000D01*
X126452380Y-116007619D01*
X126500000Y-116102857D01*
X126500000Y-116245714D01*
X126452380Y-116340952D01*
X126404761Y-116388571D01*
X126309523Y-116436190D01*
X125928571Y-116436190D01*
X127452380Y-116912380D02*
X126880952Y-116912380D01*
X127166666Y-116912380D02*
X127166666Y-115912380D01*
X127071428Y-116055238D01*
X126976190Y-116150476D01*
X126880952Y-116198095D01*
X127928571Y-116864761D02*
X127928571Y-116912380D01*
X127880952Y-117007619D01*
X127833333Y-117055238D01*
X128309523Y-116007619D02*
X128357142Y-115960000D01*
X128452380Y-115912380D01*
X128690476Y-115912380D01*
X128785714Y-115960000D01*
X128833333Y-116007619D01*
X128880952Y-116102857D01*
X128880952Y-116198095D01*
X128833333Y-116340952D01*
X128261904Y-116912380D01*
X128880952Y-116912380D01*
X123976190Y-118562380D02*
X123404761Y-118562380D01*
X123690476Y-118562380D02*
X123690476Y-117562380D01*
X123595238Y-117705238D01*
X123500000Y-117800476D01*
X123404761Y-117848095D01*
X124404761Y-118181428D02*
X125166666Y-118181428D01*
X125595238Y-117657619D02*
X125642857Y-117610000D01*
X125738095Y-117562380D01*
X125976190Y-117562380D01*
X126071428Y-117610000D01*
X126119047Y-117657619D01*
X126166666Y-117752857D01*
X126166666Y-117848095D01*
X126119047Y-117990952D01*
X125547619Y-118562380D01*
X126166666Y-118562380D01*
X127357142Y-118467142D02*
X127404761Y-118514761D01*
X127357142Y-118562380D01*
X127309523Y-118514761D01*
X127357142Y-118467142D01*
X127357142Y-118562380D01*
X127357142Y-117943333D02*
X127404761Y-117990952D01*
X127357142Y-118038571D01*
X127309523Y-117990952D01*
X127357142Y-117943333D01*
X127357142Y-118038571D01*
X129166666Y-118562380D02*
X128833333Y-118086190D01*
X128595238Y-118562380D02*
X128595238Y-117562380D01*
X128976190Y-117562380D01*
X129071428Y-117610000D01*
X129119047Y-117657619D01*
X129166666Y-117752857D01*
X129166666Y-117895714D01*
X129119047Y-117990952D01*
X129071428Y-118038571D01*
X128976190Y-118086190D01*
X128595238Y-118086190D01*
X129976190Y-118514761D02*
X129880952Y-118562380D01*
X129690476Y-118562380D01*
X129595238Y-118514761D01*
X129547619Y-118419523D01*
X129547619Y-118038571D01*
X129595238Y-117943333D01*
X129690476Y-117895714D01*
X129880952Y-117895714D01*
X129976190Y-117943333D01*
X130023809Y-118038571D01*
X130023809Y-118133809D01*
X129547619Y-118229047D01*
X130309523Y-117895714D02*
X130690476Y-117895714D01*
X130452380Y-118562380D02*
X130452380Y-117705238D01*
X130500000Y-117610000D01*
X130595238Y-117562380D01*
X130690476Y-117562380D01*
X123452380Y-119307619D02*
X123500000Y-119260000D01*
X123595238Y-119212380D01*
X123833333Y-119212380D01*
X123928571Y-119260000D01*
X123976190Y-119307619D01*
X124023809Y-119402857D01*
X124023809Y-119498095D01*
X123976190Y-119640952D01*
X123404761Y-120212380D01*
X124023809Y-120212380D01*
X124452380Y-119831428D02*
X125214285Y-119831428D01*
X125595238Y-119212380D02*
X126214285Y-119212380D01*
X125880952Y-119593333D01*
X126023809Y-119593333D01*
X126119047Y-119640952D01*
X126166666Y-119688571D01*
X126214285Y-119783809D01*
X126214285Y-120021904D01*
X126166666Y-120117142D01*
X126119047Y-120164761D01*
X126023809Y-120212380D01*
X125738095Y-120212380D01*
X125642857Y-120164761D01*
X125595238Y-120117142D01*
X127404761Y-120117142D02*
X127452380Y-120164761D01*
X127404761Y-120212380D01*
X127357142Y-120164761D01*
X127404761Y-120117142D01*
X127404761Y-120212380D01*
X127404761Y-119593333D02*
X127452380Y-119640952D01*
X127404761Y-119688571D01*
X127357142Y-119640952D01*
X127404761Y-119593333D01*
X127404761Y-119688571D01*
X128595238Y-120164761D02*
X128738095Y-120212380D01*
X128976190Y-120212380D01*
X129071428Y-120164761D01*
X129119047Y-120117142D01*
X129166666Y-120021904D01*
X129166666Y-119926666D01*
X129119047Y-119831428D01*
X129071428Y-119783809D01*
X128976190Y-119736190D01*
X128785714Y-119688571D01*
X128690476Y-119640952D01*
X128642857Y-119593333D01*
X128595238Y-119498095D01*
X128595238Y-119402857D01*
X128642857Y-119307619D01*
X128690476Y-119260000D01*
X128785714Y-119212380D01*
X129023809Y-119212380D01*
X129166666Y-119260000D01*
X129595238Y-120212380D02*
X129595238Y-119545714D01*
X129595238Y-119212380D02*
X129547619Y-119260000D01*
X129595238Y-119307619D01*
X129642857Y-119260000D01*
X129595238Y-119212380D01*
X129595238Y-119307619D01*
X130500000Y-119545714D02*
X130500000Y-120355238D01*
X130452380Y-120450476D01*
X130404761Y-120498095D01*
X130309523Y-120545714D01*
X130166666Y-120545714D01*
X130071428Y-120498095D01*
X130500000Y-120164761D02*
X130404761Y-120212380D01*
X130214285Y-120212380D01*
X130119047Y-120164761D01*
X130071428Y-120117142D01*
X130023809Y-120021904D01*
X130023809Y-119736190D01*
X130071428Y-119640952D01*
X130119047Y-119593333D01*
X130214285Y-119545714D01*
X130404761Y-119545714D01*
X130500000Y-119593333D01*
X161194761Y-94527619D02*
X161099523Y-94480000D01*
X161004285Y-94384761D01*
X160861428Y-94241904D01*
X160766190Y-94194285D01*
X160670952Y-94194285D01*
X160718571Y-94432380D02*
X160623333Y-94384761D01*
X160528095Y-94289523D01*
X160480476Y-94099047D01*
X160480476Y-93765714D01*
X160528095Y-93575238D01*
X160623333Y-93480000D01*
X160718571Y-93432380D01*
X160909047Y-93432380D01*
X161004285Y-93480000D01*
X161099523Y-93575238D01*
X161147142Y-93765714D01*
X161147142Y-94099047D01*
X161099523Y-94289523D01*
X161004285Y-94384761D01*
X160909047Y-94432380D01*
X160718571Y-94432380D01*
X161528095Y-93527619D02*
X161575714Y-93480000D01*
X161670952Y-93432380D01*
X161909047Y-93432380D01*
X162004285Y-93480000D01*
X162051904Y-93527619D01*
X162099523Y-93622857D01*
X162099523Y-93718095D01*
X162051904Y-93860952D01*
X161480476Y-94432380D01*
X162099523Y-94432380D01*
X161194761Y-98337619D02*
X161099523Y-98290000D01*
X161004285Y-98194761D01*
X160861428Y-98051904D01*
X160766190Y-98004285D01*
X160670952Y-98004285D01*
X160718571Y-98242380D02*
X160623333Y-98194761D01*
X160528095Y-98099523D01*
X160480476Y-97909047D01*
X160480476Y-97575714D01*
X160528095Y-97385238D01*
X160623333Y-97290000D01*
X160718571Y-97242380D01*
X160909047Y-97242380D01*
X161004285Y-97290000D01*
X161099523Y-97385238D01*
X161147142Y-97575714D01*
X161147142Y-97909047D01*
X161099523Y-98099523D01*
X161004285Y-98194761D01*
X160909047Y-98242380D01*
X160718571Y-98242380D01*
X162099523Y-98242380D02*
X161528095Y-98242380D01*
X161813809Y-98242380D02*
X161813809Y-97242380D01*
X161718571Y-97385238D01*
X161623333Y-97480476D01*
X161528095Y-97528095D01*
X154813095Y-78240000D02*
X154717857Y-78192380D01*
X154575000Y-78192380D01*
X154432142Y-78240000D01*
X154336904Y-78335238D01*
X154289285Y-78430476D01*
X154241666Y-78620952D01*
X154241666Y-78763809D01*
X154289285Y-78954285D01*
X154336904Y-79049523D01*
X154432142Y-79144761D01*
X154575000Y-79192380D01*
X154670238Y-79192380D01*
X154813095Y-79144761D01*
X154860714Y-79097142D01*
X154860714Y-78763809D01*
X154670238Y-78763809D01*
X155289285Y-79192380D02*
X155289285Y-78192380D01*
X155860714Y-79192380D01*
X155860714Y-78192380D01*
X156336904Y-79192380D02*
X156336904Y-78192380D01*
X156575000Y-78192380D01*
X156717857Y-78240000D01*
X156813095Y-78335238D01*
X156860714Y-78430476D01*
X156908333Y-78620952D01*
X156908333Y-78763809D01*
X156860714Y-78954285D01*
X156813095Y-79049523D01*
X156717857Y-79144761D01*
X156575000Y-79192380D01*
X156336904Y-79192380D01*
X176030000Y-87121904D02*
X175982380Y-87217142D01*
X175982380Y-87360000D01*
X176030000Y-87502857D01*
X176125238Y-87598095D01*
X176220476Y-87645714D01*
X176410952Y-87693333D01*
X176553809Y-87693333D01*
X176744285Y-87645714D01*
X176839523Y-87598095D01*
X176934761Y-87502857D01*
X176982380Y-87360000D01*
X176982380Y-87264761D01*
X176934761Y-87121904D01*
X176887142Y-87074285D01*
X176553809Y-87074285D01*
X176553809Y-87264761D01*
X176982380Y-86645714D02*
X175982380Y-86645714D01*
X176982380Y-86074285D01*
X175982380Y-86074285D01*
X176982380Y-85598095D02*
X175982380Y-85598095D01*
X175982380Y-85360000D01*
X176030000Y-85217142D01*
X176125238Y-85121904D01*
X176220476Y-85074285D01*
X176410952Y-85026666D01*
X176553809Y-85026666D01*
X176744285Y-85074285D01*
X176839523Y-85121904D01*
X176934761Y-85217142D01*
X176982380Y-85360000D01*
X176982380Y-85598095D01*
X176696666Y-102742857D02*
X176696666Y-102266666D01*
X176982380Y-102838095D02*
X175982380Y-102504761D01*
X176982380Y-102171428D01*
X176982380Y-101838095D02*
X175982380Y-101838095D01*
X176982380Y-101266666D01*
X175982380Y-101266666D01*
X175982380Y-100933333D02*
X175982380Y-100361904D01*
X176982380Y-100647619D02*
X175982380Y-100647619D01*
D11*
X139137142Y-80260000D02*
X139851428Y-80260000D01*
X138994285Y-80688571D02*
X139494285Y-79188571D01*
X139994285Y-80688571D01*
X140494285Y-80688571D02*
X140494285Y-79188571D01*
X140637142Y-80117142D02*
X141065714Y-80688571D01*
X141065714Y-79688571D02*
X140494285Y-80260000D01*
X142351428Y-80688571D02*
X142351428Y-79902857D01*
X142280000Y-79760000D01*
X142137142Y-79688571D01*
X141851428Y-79688571D01*
X141708571Y-79760000D01*
X142351428Y-80617142D02*
X142208571Y-80688571D01*
X141851428Y-80688571D01*
X141708571Y-80617142D01*
X141637142Y-80474285D01*
X141637142Y-80331428D01*
X141708571Y-80188571D01*
X141851428Y-80117142D01*
X142208571Y-80117142D01*
X142351428Y-80045714D01*
X142994285Y-80617142D02*
X143137142Y-80688571D01*
X143422857Y-80688571D01*
X143565714Y-80617142D01*
X143637142Y-80474285D01*
X143637142Y-80402857D01*
X143565714Y-80260000D01*
X143422857Y-80188571D01*
X143208571Y-80188571D01*
X143065714Y-80117142D01*
X142994285Y-79974285D01*
X142994285Y-79902857D01*
X143065714Y-79760000D01*
X143208571Y-79688571D01*
X143422857Y-79688571D01*
X143565714Y-79760000D01*
X144280000Y-80688571D02*
X144280000Y-79188571D01*
X144922857Y-80688571D02*
X144922857Y-79902857D01*
X144851428Y-79760000D01*
X144708571Y-79688571D01*
X144494285Y-79688571D01*
X144351428Y-79760000D01*
X144280000Y-79831428D01*
X145637142Y-80688571D02*
X145637142Y-79688571D01*
X145637142Y-79188571D02*
X145565714Y-79260000D01*
X145637142Y-79331428D01*
X145708571Y-79260000D01*
X145637142Y-79188571D01*
X145637142Y-79331428D01*
X146351428Y-80117142D02*
X147494285Y-80117142D01*
X148494285Y-79188571D02*
X148637142Y-79188571D01*
X148780000Y-79260000D01*
X148851428Y-79331428D01*
X148922857Y-79474285D01*
X148994285Y-79760000D01*
X148994285Y-80117142D01*
X148922857Y-80402857D01*
X148851428Y-80545714D01*
X148780000Y-80617142D01*
X148637142Y-80688571D01*
X148494285Y-80688571D01*
X148351428Y-80617142D01*
X148280000Y-80545714D01*
X148208571Y-80402857D01*
X148137142Y-80117142D01*
X148137142Y-79760000D01*
X148208571Y-79474285D01*
X148280000Y-79331428D01*
X148351428Y-79260000D01*
X148494285Y-79188571D01*
X149494285Y-79188571D02*
X150494285Y-79188571D01*
X149851428Y-80688571D01*
D12*
%TO.C,U5*%
X158380000Y-114595000D02*
X155930000Y-114595000D01*
X156580000Y-117815000D02*
X158380000Y-117815000D01*
%TO.C,L1*%
X164465000Y-95690000D02*
X164465000Y-97960000D01*
X166175000Y-93980000D02*
G75*
G03*
X166175000Y-93980000I-1710000J0D01*
G01*
%TO.C,C1*%
X125770000Y-76925000D02*
X125770000Y-81745000D01*
X123150000Y-76925000D02*
X123150000Y-81745000D01*
X125770000Y-76925000D02*
X125456000Y-76925000D01*
X123464000Y-76925000D02*
X123150000Y-76925000D01*
X125770000Y-81745000D02*
X125456000Y-81745000D01*
X123464000Y-81745000D02*
X123150000Y-81745000D01*
%TO.C,X1*%
X115470000Y-76120000D02*
X113870000Y-76120000D01*
X115470000Y-79000000D02*
X115470000Y-76120000D01*
X120870000Y-76120000D02*
X120870000Y-79000000D01*
X119070000Y-81260000D02*
X117270000Y-81260000D01*
X117270000Y-73860000D02*
X119070000Y-73860000D01*
X117270000Y-73620000D02*
X117270000Y-73860000D01*
%TO.C,C12*%
X125456000Y-96690000D02*
X125770000Y-96690000D01*
X123150000Y-96690000D02*
X123464000Y-96690000D01*
X125456000Y-101510000D02*
X125770000Y-101510000D01*
X123150000Y-101510000D02*
X123464000Y-101510000D01*
X125770000Y-101510000D02*
X125770000Y-96690000D01*
X123150000Y-101510000D02*
X123150000Y-96690000D01*
%TO.C,JP2*%
X129600000Y-105470000D02*
X128270000Y-105470000D01*
X129600000Y-104140000D02*
X129600000Y-105470000D01*
X129600000Y-102870000D02*
X126940000Y-102870000D01*
X126940000Y-102870000D02*
X126940000Y-97730000D01*
X129600000Y-102870000D02*
X129600000Y-97730000D01*
X129600000Y-97730000D02*
X126940000Y-97730000D01*
%TO.C,JP1*%
X143570000Y-107375000D02*
X142240000Y-107375000D01*
X143570000Y-106045000D02*
X143570000Y-107375000D01*
X143570000Y-104775000D02*
X140910000Y-104775000D01*
X140910000Y-104775000D02*
X140910000Y-99635000D01*
X143570000Y-104775000D02*
X143570000Y-99635000D01*
X143570000Y-99635000D02*
X140910000Y-99635000D01*
%TO.C,J3*%
X120330000Y-121970000D02*
X120330000Y-125970000D01*
X122230000Y-121970000D02*
X120330000Y-121970000D01*
X122230000Y-107730000D02*
X122230000Y-121970000D01*
X113790000Y-107730000D02*
X122230000Y-107730000D01*
X113790000Y-121970000D02*
X113790000Y-107730000D01*
X114090000Y-121970000D02*
X113790000Y-121970000D01*
X114090000Y-125970000D02*
X114090000Y-121970000D01*
X120330000Y-125970000D02*
X114090000Y-125970000D01*
%TO.C,J6*%
X154746000Y-72330000D02*
X154746000Y-73660000D01*
X153416000Y-72330000D02*
X154746000Y-72330000D01*
X152146000Y-72330000D02*
X152146000Y-74990000D01*
X152146000Y-74990000D02*
X129226000Y-74990000D01*
X152146000Y-72330000D02*
X129226000Y-72330000D01*
X129226000Y-72330000D02*
X129226000Y-74990000D01*
%TO.C,U4*%
X132605000Y-108010000D02*
X134255000Y-108010000D01*
X132605000Y-97730000D02*
X132605000Y-108010000D01*
X137905000Y-97730000D02*
X132605000Y-97730000D01*
X137905000Y-108010000D02*
X137905000Y-97730000D01*
X136255000Y-108010000D02*
X137905000Y-108010000D01*
X134255000Y-108010000D02*
G75*
G02*
X136255000Y-108010000I1000000J0D01*
G01*
D13*
%TO.C,U3*%
X149761600Y-102176400D02*
X153114400Y-102176400D01*
X153114400Y-102176400D02*
X153114400Y-101952441D01*
X153114400Y-98823600D02*
X149761600Y-98823600D01*
X149761600Y-98823600D02*
X149761600Y-99047559D01*
X149761600Y-101952441D02*
X149761600Y-102176400D01*
X153114400Y-99047559D02*
X153114400Y-98823600D01*
X154823299Y-99309499D02*
X154823299Y-99690499D01*
X154823299Y-99690499D02*
X154569299Y-99690499D01*
X154569299Y-99690499D02*
X154569299Y-99309499D01*
X154569299Y-99309499D02*
X154823299Y-99309499D01*
D10*
%TO.C,U2*%
X149440000Y-88940000D02*
X148090000Y-88940000D01*
X149440000Y-94065000D02*
X154090000Y-94065000D01*
X149440000Y-88815000D02*
X154090000Y-88815000D01*
X149440000Y-94065000D02*
X149440000Y-93840000D01*
X154090000Y-94065000D02*
X154090000Y-93840000D01*
X154090000Y-88815000D02*
X154090000Y-89040000D01*
X149440000Y-88815000D02*
X149440000Y-88940000D01*
%TO.C,U1*%
X135485000Y-87550000D02*
X134260000Y-87550000D01*
X135485000Y-90675000D02*
X138835000Y-90675000D01*
X135485000Y-87325000D02*
X138835000Y-87325000D01*
X135485000Y-90675000D02*
X135485000Y-90375000D01*
X138835000Y-90675000D02*
X138835000Y-90375000D01*
X138835000Y-87325000D02*
X138835000Y-87625000D01*
X135485000Y-87325000D02*
X135485000Y-87550000D01*
D12*
%TO.C,R6*%
X124460000Y-105000000D02*
X124460000Y-105680000D01*
X125320000Y-104140000D02*
G75*
G03*
X125320000Y-104140000I-860000J0D01*
G01*
%TO.C,R5*%
X145415000Y-105185000D02*
X145415000Y-104505000D01*
X146275000Y-106045000D02*
G75*
G03*
X146275000Y-106045000I-860000J0D01*
G01*
%TO.C,R4*%
X166595000Y-88900000D02*
X167275000Y-88900000D01*
X166595000Y-88900000D02*
G75*
G03*
X166595000Y-88900000I-860000J0D01*
G01*
%TO.C,R3*%
X160880000Y-88900000D02*
X161560000Y-88900000D01*
X160880000Y-88900000D02*
G75*
G03*
X160880000Y-88900000I-860000J0D01*
G01*
%TO.C,R2*%
X129130000Y-77470000D02*
X129810000Y-77470000D01*
X129130000Y-77470000D02*
G75*
G03*
X129130000Y-77470000I-860000J0D01*
G01*
%TO.C,R1*%
X135030000Y-77470000D02*
X134350000Y-77470000D01*
X136750000Y-77470000D02*
G75*
G03*
X136750000Y-77470000I-860000J0D01*
G01*
%TO.C,J7*%
X176590000Y-72330000D02*
X176590000Y-73660000D01*
X175260000Y-72330000D02*
X176590000Y-72330000D01*
X173990000Y-72330000D02*
X173990000Y-74990000D01*
X173990000Y-74990000D02*
X156150000Y-74990000D01*
X173990000Y-72330000D02*
X156150000Y-72330000D01*
X156150000Y-72330000D02*
X156150000Y-74990000D01*
%TO.C,J5*%
X161230000Y-123250000D02*
X161230000Y-121920000D01*
X162560000Y-123250000D02*
X161230000Y-123250000D01*
X163830000Y-123250000D02*
X163830000Y-120590000D01*
X163830000Y-120590000D02*
X176590000Y-120590000D01*
X163830000Y-123250000D02*
X176590000Y-123250000D01*
X176590000Y-123250000D02*
X176590000Y-120590000D01*
%TO.C,J4*%
X138370000Y-123250000D02*
X138370000Y-121920000D01*
X139700000Y-123250000D02*
X138370000Y-123250000D01*
X140970000Y-123250000D02*
X140970000Y-120590000D01*
X140970000Y-120590000D02*
X158810000Y-120590000D01*
X140970000Y-123250000D02*
X158810000Y-123250000D01*
X158810000Y-123250000D02*
X158810000Y-120590000D01*
%TO.C,J2*%
X179070000Y-99060000D02*
X179070000Y-88900000D01*
X171450000Y-99060000D02*
X179070000Y-99060000D01*
X171450000Y-88900000D02*
X171450000Y-99060000D01*
X179070000Y-88900000D02*
X171450000Y-88900000D01*
X177800000Y-88900000D02*
X177800000Y-99060000D01*
%TO.C,J1*%
X174260000Y-112520000D02*
X176260000Y-112520000D01*
X174260000Y-105920000D02*
X176260000Y-105920000D01*
X178560000Y-110220000D02*
X178560000Y-108220000D01*
X171960000Y-110220000D02*
X171960000Y-108220000D01*
%TO.C,C19*%
X167020000Y-111430000D02*
X165720000Y-111430000D01*
X166370000Y-110830000D02*
X166370000Y-112030000D01*
X166616000Y-118361000D02*
X166124000Y-118361000D01*
X166968000Y-118321000D02*
X165772000Y-118321000D01*
X167184000Y-118281000D02*
X165556000Y-118281000D01*
X167353000Y-118241000D02*
X165387000Y-118241000D01*
X167497000Y-118201000D02*
X165243000Y-118201000D01*
X167624000Y-118161000D02*
X165116000Y-118161000D01*
X167739000Y-118121000D02*
X165001000Y-118121000D01*
X167843000Y-118081000D02*
X164897000Y-118081000D01*
X167940000Y-118041000D02*
X164800000Y-118041000D01*
X168030000Y-118001000D02*
X164710000Y-118001000D01*
X168115000Y-117961000D02*
X164625000Y-117961000D01*
X168196000Y-117921000D02*
X164544000Y-117921000D01*
X168272000Y-117881000D02*
X164468000Y-117881000D01*
X168344000Y-117841000D02*
X164396000Y-117841000D01*
X168413000Y-117801000D02*
X164327000Y-117801000D01*
X168479000Y-117761000D02*
X164261000Y-117761000D01*
X168543000Y-117721000D02*
X164197000Y-117721000D01*
X168604000Y-117681000D02*
X164136000Y-117681000D01*
X168663000Y-117641000D02*
X164077000Y-117641000D01*
X168719000Y-117601000D02*
X164021000Y-117601000D01*
X168774000Y-117561000D02*
X163966000Y-117561000D01*
X168827000Y-117521000D02*
X163913000Y-117521000D01*
X168878000Y-117481000D02*
X163862000Y-117481000D01*
X168927000Y-117441000D02*
X163813000Y-117441000D01*
X168975000Y-117401000D02*
X163765000Y-117401000D01*
X169022000Y-117361000D02*
X163718000Y-117361000D01*
X169067000Y-117321000D02*
X163673000Y-117321000D01*
X169110000Y-117281000D02*
X163630000Y-117281000D01*
X169153000Y-117241000D02*
X163587000Y-117241000D01*
X169194000Y-117201000D02*
X163546000Y-117201000D01*
X169235000Y-117161000D02*
X163505000Y-117161000D01*
X169274000Y-117121000D02*
X163466000Y-117121000D01*
X169312000Y-117081000D02*
X163428000Y-117081000D01*
X169349000Y-117041000D02*
X163391000Y-117041000D01*
X169385000Y-117001000D02*
X163355000Y-117001000D01*
X169420000Y-116961000D02*
X163320000Y-116961000D01*
X169454000Y-116921000D02*
X163286000Y-116921000D01*
X169488000Y-116881000D02*
X163252000Y-116881000D01*
X169520000Y-116841000D02*
X163220000Y-116841000D01*
X169552000Y-116801000D02*
X163188000Y-116801000D01*
X169583000Y-116761000D02*
X163157000Y-116761000D01*
X169613000Y-116721000D02*
X163127000Y-116721000D01*
X169642000Y-116681000D02*
X163098000Y-116681000D01*
X169671000Y-116641000D02*
X163069000Y-116641000D01*
X169699000Y-116601000D02*
X163041000Y-116601000D01*
X169726000Y-116561000D02*
X163014000Y-116561000D01*
X169753000Y-116521000D02*
X162987000Y-116521000D01*
X165390000Y-116481000D02*
X162962000Y-116481000D01*
X169778000Y-116481000D02*
X167350000Y-116481000D01*
X165390000Y-116441000D02*
X162936000Y-116441000D01*
X169804000Y-116441000D02*
X167350000Y-116441000D01*
X165390000Y-116401000D02*
X162912000Y-116401000D01*
X169828000Y-116401000D02*
X167350000Y-116401000D01*
X165390000Y-116361000D02*
X162888000Y-116361000D01*
X169852000Y-116361000D02*
X167350000Y-116361000D01*
X165390000Y-116321000D02*
X162865000Y-116321000D01*
X169875000Y-116321000D02*
X167350000Y-116321000D01*
X165390000Y-116281000D02*
X162842000Y-116281000D01*
X169898000Y-116281000D02*
X167350000Y-116281000D01*
X165390000Y-116241000D02*
X162820000Y-116241000D01*
X169920000Y-116241000D02*
X167350000Y-116241000D01*
X165390000Y-116201000D02*
X162798000Y-116201000D01*
X169942000Y-116201000D02*
X167350000Y-116201000D01*
X165390000Y-116161000D02*
X162777000Y-116161000D01*
X169963000Y-116161000D02*
X167350000Y-116161000D01*
X165390000Y-116121000D02*
X162757000Y-116121000D01*
X169983000Y-116121000D02*
X167350000Y-116121000D01*
X165390000Y-116081000D02*
X162737000Y-116081000D01*
X170003000Y-116081000D02*
X167350000Y-116081000D01*
X165390000Y-116041000D02*
X162718000Y-116041000D01*
X170022000Y-116041000D02*
X167350000Y-116041000D01*
X165390000Y-116001000D02*
X162699000Y-116001000D01*
X170041000Y-116001000D02*
X167350000Y-116001000D01*
X165390000Y-115961000D02*
X162680000Y-115961000D01*
X170060000Y-115961000D02*
X167350000Y-115961000D01*
X165390000Y-115921000D02*
X162663000Y-115921000D01*
X170077000Y-115921000D02*
X167350000Y-115921000D01*
X165390000Y-115881000D02*
X162645000Y-115881000D01*
X170095000Y-115881000D02*
X167350000Y-115881000D01*
X165390000Y-115841000D02*
X162629000Y-115841000D01*
X170111000Y-115841000D02*
X167350000Y-115841000D01*
X165390000Y-115801000D02*
X162612000Y-115801000D01*
X170128000Y-115801000D02*
X167350000Y-115801000D01*
X165390000Y-115761000D02*
X162597000Y-115761000D01*
X170143000Y-115761000D02*
X167350000Y-115761000D01*
X165390000Y-115721000D02*
X162581000Y-115721000D01*
X170159000Y-115721000D02*
X167350000Y-115721000D01*
X165390000Y-115681000D02*
X162567000Y-115681000D01*
X170173000Y-115681000D02*
X167350000Y-115681000D01*
X165390000Y-115641000D02*
X162552000Y-115641000D01*
X170188000Y-115641000D02*
X167350000Y-115641000D01*
X165390000Y-115601000D02*
X162538000Y-115601000D01*
X170202000Y-115601000D02*
X167350000Y-115601000D01*
X165390000Y-115561000D02*
X162525000Y-115561000D01*
X170215000Y-115561000D02*
X167350000Y-115561000D01*
X165390000Y-115521000D02*
X162512000Y-115521000D01*
X170228000Y-115521000D02*
X167350000Y-115521000D01*
X165390000Y-115481000D02*
X162500000Y-115481000D01*
X170240000Y-115481000D02*
X167350000Y-115481000D01*
X165390000Y-115441000D02*
X162487000Y-115441000D01*
X170253000Y-115441000D02*
X167350000Y-115441000D01*
X165390000Y-115401000D02*
X162476000Y-115401000D01*
X170264000Y-115401000D02*
X167350000Y-115401000D01*
X165390000Y-115361000D02*
X162465000Y-115361000D01*
X170275000Y-115361000D02*
X167350000Y-115361000D01*
X165390000Y-115321000D02*
X162454000Y-115321000D01*
X170286000Y-115321000D02*
X167350000Y-115321000D01*
X165390000Y-115281000D02*
X162444000Y-115281000D01*
X170296000Y-115281000D02*
X167350000Y-115281000D01*
X165390000Y-115241000D02*
X162434000Y-115241000D01*
X170306000Y-115241000D02*
X167350000Y-115241000D01*
X165390000Y-115201000D02*
X162424000Y-115201000D01*
X170316000Y-115201000D02*
X167350000Y-115201000D01*
X165390000Y-115161000D02*
X162415000Y-115161000D01*
X170325000Y-115161000D02*
X167350000Y-115161000D01*
X165390000Y-115121000D02*
X162407000Y-115121000D01*
X170333000Y-115121000D02*
X167350000Y-115121000D01*
X165390000Y-115081000D02*
X162399000Y-115081000D01*
X170341000Y-115081000D02*
X167350000Y-115081000D01*
X165390000Y-115041000D02*
X162391000Y-115041000D01*
X170349000Y-115041000D02*
X167350000Y-115041000D01*
X165390000Y-115001000D02*
X162383000Y-115001000D01*
X170357000Y-115001000D02*
X167350000Y-115001000D01*
X165390000Y-114960000D02*
X162376000Y-114960000D01*
X170364000Y-114960000D02*
X167350000Y-114960000D01*
X165390000Y-114920000D02*
X162370000Y-114920000D01*
X170370000Y-114920000D02*
X167350000Y-114920000D01*
X165390000Y-114880000D02*
X162364000Y-114880000D01*
X170376000Y-114880000D02*
X167350000Y-114880000D01*
X165390000Y-114840000D02*
X162358000Y-114840000D01*
X170382000Y-114840000D02*
X167350000Y-114840000D01*
X165390000Y-114800000D02*
X162353000Y-114800000D01*
X170387000Y-114800000D02*
X167350000Y-114800000D01*
X165390000Y-114760000D02*
X162348000Y-114760000D01*
X170392000Y-114760000D02*
X167350000Y-114760000D01*
X165390000Y-114720000D02*
X162343000Y-114720000D01*
X170397000Y-114720000D02*
X167350000Y-114720000D01*
X165390000Y-114680000D02*
X162339000Y-114680000D01*
X170401000Y-114680000D02*
X167350000Y-114680000D01*
X165390000Y-114640000D02*
X162335000Y-114640000D01*
X170405000Y-114640000D02*
X167350000Y-114640000D01*
X165390000Y-114600000D02*
X162332000Y-114600000D01*
X170408000Y-114600000D02*
X167350000Y-114600000D01*
X165390000Y-114560000D02*
X162329000Y-114560000D01*
X170411000Y-114560000D02*
X167350000Y-114560000D01*
X170413000Y-114520000D02*
X162327000Y-114520000D01*
X170416000Y-114480000D02*
X162324000Y-114480000D01*
X170417000Y-114440000D02*
X162323000Y-114440000D01*
X170419000Y-114400000D02*
X162321000Y-114400000D01*
X170420000Y-114360000D02*
X162320000Y-114360000D01*
X170420000Y-114320000D02*
X162320000Y-114320000D01*
X170420000Y-114280000D02*
X162320000Y-114280000D01*
X170460000Y-114280000D02*
G75*
G03*
X170460000Y-114280000I-4090000J0D01*
G01*
%TO.C,C18*%
X164930000Y-108946000D02*
X164930000Y-109260000D01*
X164930000Y-106640000D02*
X164930000Y-106954000D01*
X160110000Y-108946000D02*
X160110000Y-109260000D01*
X160110000Y-106640000D02*
X160110000Y-106954000D01*
X160110000Y-109260000D02*
X164930000Y-109260000D01*
X160110000Y-106640000D02*
X164930000Y-106640000D01*
%TO.C,C17*%
X150030000Y-106954000D02*
X150030000Y-106640000D01*
X150030000Y-109260000D02*
X150030000Y-108946000D01*
X154850000Y-106954000D02*
X154850000Y-106640000D01*
X154850000Y-109260000D02*
X154850000Y-108946000D01*
X154850000Y-106640000D02*
X150030000Y-106640000D01*
X154850000Y-109260000D02*
X150030000Y-109260000D01*
%TO.C,C16*%
X149240000Y-111430000D02*
X147940000Y-111430000D01*
X148590000Y-110830000D02*
X148590000Y-112030000D01*
X148836000Y-118361000D02*
X148344000Y-118361000D01*
X149188000Y-118321000D02*
X147992000Y-118321000D01*
X149404000Y-118281000D02*
X147776000Y-118281000D01*
X149573000Y-118241000D02*
X147607000Y-118241000D01*
X149717000Y-118201000D02*
X147463000Y-118201000D01*
X149844000Y-118161000D02*
X147336000Y-118161000D01*
X149959000Y-118121000D02*
X147221000Y-118121000D01*
X150063000Y-118081000D02*
X147117000Y-118081000D01*
X150160000Y-118041000D02*
X147020000Y-118041000D01*
X150250000Y-118001000D02*
X146930000Y-118001000D01*
X150335000Y-117961000D02*
X146845000Y-117961000D01*
X150416000Y-117921000D02*
X146764000Y-117921000D01*
X150492000Y-117881000D02*
X146688000Y-117881000D01*
X150564000Y-117841000D02*
X146616000Y-117841000D01*
X150633000Y-117801000D02*
X146547000Y-117801000D01*
X150699000Y-117761000D02*
X146481000Y-117761000D01*
X150763000Y-117721000D02*
X146417000Y-117721000D01*
X150824000Y-117681000D02*
X146356000Y-117681000D01*
X150883000Y-117641000D02*
X146297000Y-117641000D01*
X150939000Y-117601000D02*
X146241000Y-117601000D01*
X150994000Y-117561000D02*
X146186000Y-117561000D01*
X151047000Y-117521000D02*
X146133000Y-117521000D01*
X151098000Y-117481000D02*
X146082000Y-117481000D01*
X151147000Y-117441000D02*
X146033000Y-117441000D01*
X151195000Y-117401000D02*
X145985000Y-117401000D01*
X151242000Y-117361000D02*
X145938000Y-117361000D01*
X151287000Y-117321000D02*
X145893000Y-117321000D01*
X151330000Y-117281000D02*
X145850000Y-117281000D01*
X151373000Y-117241000D02*
X145807000Y-117241000D01*
X151414000Y-117201000D02*
X145766000Y-117201000D01*
X151455000Y-117161000D02*
X145725000Y-117161000D01*
X151494000Y-117121000D02*
X145686000Y-117121000D01*
X151532000Y-117081000D02*
X145648000Y-117081000D01*
X151569000Y-117041000D02*
X145611000Y-117041000D01*
X151605000Y-117001000D02*
X145575000Y-117001000D01*
X151640000Y-116961000D02*
X145540000Y-116961000D01*
X151674000Y-116921000D02*
X145506000Y-116921000D01*
X151708000Y-116881000D02*
X145472000Y-116881000D01*
X151740000Y-116841000D02*
X145440000Y-116841000D01*
X151772000Y-116801000D02*
X145408000Y-116801000D01*
X151803000Y-116761000D02*
X145377000Y-116761000D01*
X151833000Y-116721000D02*
X145347000Y-116721000D01*
X151862000Y-116681000D02*
X145318000Y-116681000D01*
X151891000Y-116641000D02*
X145289000Y-116641000D01*
X151919000Y-116601000D02*
X145261000Y-116601000D01*
X151946000Y-116561000D02*
X145234000Y-116561000D01*
X151973000Y-116521000D02*
X145207000Y-116521000D01*
X147610000Y-116481000D02*
X145182000Y-116481000D01*
X151998000Y-116481000D02*
X149570000Y-116481000D01*
X147610000Y-116441000D02*
X145156000Y-116441000D01*
X152024000Y-116441000D02*
X149570000Y-116441000D01*
X147610000Y-116401000D02*
X145132000Y-116401000D01*
X152048000Y-116401000D02*
X149570000Y-116401000D01*
X147610000Y-116361000D02*
X145108000Y-116361000D01*
X152072000Y-116361000D02*
X149570000Y-116361000D01*
X147610000Y-116321000D02*
X145085000Y-116321000D01*
X152095000Y-116321000D02*
X149570000Y-116321000D01*
X147610000Y-116281000D02*
X145062000Y-116281000D01*
X152118000Y-116281000D02*
X149570000Y-116281000D01*
X147610000Y-116241000D02*
X145040000Y-116241000D01*
X152140000Y-116241000D02*
X149570000Y-116241000D01*
X147610000Y-116201000D02*
X145018000Y-116201000D01*
X152162000Y-116201000D02*
X149570000Y-116201000D01*
X147610000Y-116161000D02*
X144997000Y-116161000D01*
X152183000Y-116161000D02*
X149570000Y-116161000D01*
X147610000Y-116121000D02*
X144977000Y-116121000D01*
X152203000Y-116121000D02*
X149570000Y-116121000D01*
X147610000Y-116081000D02*
X144957000Y-116081000D01*
X152223000Y-116081000D02*
X149570000Y-116081000D01*
X147610000Y-116041000D02*
X144938000Y-116041000D01*
X152242000Y-116041000D02*
X149570000Y-116041000D01*
X147610000Y-116001000D02*
X144919000Y-116001000D01*
X152261000Y-116001000D02*
X149570000Y-116001000D01*
X147610000Y-115961000D02*
X144900000Y-115961000D01*
X152280000Y-115961000D02*
X149570000Y-115961000D01*
X147610000Y-115921000D02*
X144883000Y-115921000D01*
X152297000Y-115921000D02*
X149570000Y-115921000D01*
X147610000Y-115881000D02*
X144865000Y-115881000D01*
X152315000Y-115881000D02*
X149570000Y-115881000D01*
X147610000Y-115841000D02*
X144849000Y-115841000D01*
X152331000Y-115841000D02*
X149570000Y-115841000D01*
X147610000Y-115801000D02*
X144832000Y-115801000D01*
X152348000Y-115801000D02*
X149570000Y-115801000D01*
X147610000Y-115761000D02*
X144817000Y-115761000D01*
X152363000Y-115761000D02*
X149570000Y-115761000D01*
X147610000Y-115721000D02*
X144801000Y-115721000D01*
X152379000Y-115721000D02*
X149570000Y-115721000D01*
X147610000Y-115681000D02*
X144787000Y-115681000D01*
X152393000Y-115681000D02*
X149570000Y-115681000D01*
X147610000Y-115641000D02*
X144772000Y-115641000D01*
X152408000Y-115641000D02*
X149570000Y-115641000D01*
X147610000Y-115601000D02*
X144758000Y-115601000D01*
X152422000Y-115601000D02*
X149570000Y-115601000D01*
X147610000Y-115561000D02*
X144745000Y-115561000D01*
X152435000Y-115561000D02*
X149570000Y-115561000D01*
X147610000Y-115521000D02*
X144732000Y-115521000D01*
X152448000Y-115521000D02*
X149570000Y-115521000D01*
X147610000Y-115481000D02*
X144720000Y-115481000D01*
X152460000Y-115481000D02*
X149570000Y-115481000D01*
X147610000Y-115441000D02*
X144707000Y-115441000D01*
X152473000Y-115441000D02*
X149570000Y-115441000D01*
X147610000Y-115401000D02*
X144696000Y-115401000D01*
X152484000Y-115401000D02*
X149570000Y-115401000D01*
X147610000Y-115361000D02*
X144685000Y-115361000D01*
X152495000Y-115361000D02*
X149570000Y-115361000D01*
X147610000Y-115321000D02*
X144674000Y-115321000D01*
X152506000Y-115321000D02*
X149570000Y-115321000D01*
X147610000Y-115281000D02*
X144664000Y-115281000D01*
X152516000Y-115281000D02*
X149570000Y-115281000D01*
X147610000Y-115241000D02*
X144654000Y-115241000D01*
X152526000Y-115241000D02*
X149570000Y-115241000D01*
X147610000Y-115201000D02*
X144644000Y-115201000D01*
X152536000Y-115201000D02*
X149570000Y-115201000D01*
X147610000Y-115161000D02*
X144635000Y-115161000D01*
X152545000Y-115161000D02*
X149570000Y-115161000D01*
X147610000Y-115121000D02*
X144627000Y-115121000D01*
X152553000Y-115121000D02*
X149570000Y-115121000D01*
X147610000Y-115081000D02*
X144619000Y-115081000D01*
X152561000Y-115081000D02*
X149570000Y-115081000D01*
X147610000Y-115041000D02*
X144611000Y-115041000D01*
X152569000Y-115041000D02*
X149570000Y-115041000D01*
X147610000Y-115001000D02*
X144603000Y-115001000D01*
X152577000Y-115001000D02*
X149570000Y-115001000D01*
X147610000Y-114960000D02*
X144596000Y-114960000D01*
X152584000Y-114960000D02*
X149570000Y-114960000D01*
X147610000Y-114920000D02*
X144590000Y-114920000D01*
X152590000Y-114920000D02*
X149570000Y-114920000D01*
X147610000Y-114880000D02*
X144584000Y-114880000D01*
X152596000Y-114880000D02*
X149570000Y-114880000D01*
X147610000Y-114840000D02*
X144578000Y-114840000D01*
X152602000Y-114840000D02*
X149570000Y-114840000D01*
X147610000Y-114800000D02*
X144573000Y-114800000D01*
X152607000Y-114800000D02*
X149570000Y-114800000D01*
X147610000Y-114760000D02*
X144568000Y-114760000D01*
X152612000Y-114760000D02*
X149570000Y-114760000D01*
X147610000Y-114720000D02*
X144563000Y-114720000D01*
X152617000Y-114720000D02*
X149570000Y-114720000D01*
X147610000Y-114680000D02*
X144559000Y-114680000D01*
X152621000Y-114680000D02*
X149570000Y-114680000D01*
X147610000Y-114640000D02*
X144555000Y-114640000D01*
X152625000Y-114640000D02*
X149570000Y-114640000D01*
X147610000Y-114600000D02*
X144552000Y-114600000D01*
X152628000Y-114600000D02*
X149570000Y-114600000D01*
X147610000Y-114560000D02*
X144549000Y-114560000D01*
X152631000Y-114560000D02*
X149570000Y-114560000D01*
X152633000Y-114520000D02*
X144547000Y-114520000D01*
X152636000Y-114480000D02*
X144544000Y-114480000D01*
X152637000Y-114440000D02*
X144543000Y-114440000D01*
X152639000Y-114400000D02*
X144541000Y-114400000D01*
X152640000Y-114360000D02*
X144540000Y-114360000D01*
X152640000Y-114320000D02*
X144540000Y-114320000D01*
X152640000Y-114280000D02*
X144540000Y-114280000D01*
X152680000Y-114280000D02*
G75*
G03*
X152680000Y-114280000I-4090000J0D01*
G01*
%TO.C,C15*%
X120980000Y-92090000D02*
X120980000Y-90790000D01*
X121580000Y-91440000D02*
X120380000Y-91440000D01*
X114049000Y-91686000D02*
X114049000Y-91194000D01*
X114089000Y-92038000D02*
X114089000Y-90842000D01*
X114129000Y-92254000D02*
X114129000Y-90626000D01*
X114169000Y-92423000D02*
X114169000Y-90457000D01*
X114209000Y-92567000D02*
X114209000Y-90313000D01*
X114249000Y-92694000D02*
X114249000Y-90186000D01*
X114289000Y-92809000D02*
X114289000Y-90071000D01*
X114329000Y-92913000D02*
X114329000Y-89967000D01*
X114369000Y-93010000D02*
X114369000Y-89870000D01*
X114409000Y-93100000D02*
X114409000Y-89780000D01*
X114449000Y-93185000D02*
X114449000Y-89695000D01*
X114489000Y-93266000D02*
X114489000Y-89614000D01*
X114529000Y-93342000D02*
X114529000Y-89538000D01*
X114569000Y-93414000D02*
X114569000Y-89466000D01*
X114609000Y-93483000D02*
X114609000Y-89397000D01*
X114649000Y-93549000D02*
X114649000Y-89331000D01*
X114689000Y-93613000D02*
X114689000Y-89267000D01*
X114729000Y-93674000D02*
X114729000Y-89206000D01*
X114769000Y-93733000D02*
X114769000Y-89147000D01*
X114809000Y-93789000D02*
X114809000Y-89091000D01*
X114849000Y-93844000D02*
X114849000Y-89036000D01*
X114889000Y-93897000D02*
X114889000Y-88983000D01*
X114929000Y-93948000D02*
X114929000Y-88932000D01*
X114969000Y-93997000D02*
X114969000Y-88883000D01*
X115009000Y-94045000D02*
X115009000Y-88835000D01*
X115049000Y-94092000D02*
X115049000Y-88788000D01*
X115089000Y-94137000D02*
X115089000Y-88743000D01*
X115129000Y-94180000D02*
X115129000Y-88700000D01*
X115169000Y-94223000D02*
X115169000Y-88657000D01*
X115209000Y-94264000D02*
X115209000Y-88616000D01*
X115249000Y-94305000D02*
X115249000Y-88575000D01*
X115289000Y-94344000D02*
X115289000Y-88536000D01*
X115329000Y-94382000D02*
X115329000Y-88498000D01*
X115369000Y-94419000D02*
X115369000Y-88461000D01*
X115409000Y-94455000D02*
X115409000Y-88425000D01*
X115449000Y-94490000D02*
X115449000Y-88390000D01*
X115489000Y-94524000D02*
X115489000Y-88356000D01*
X115529000Y-94558000D02*
X115529000Y-88322000D01*
X115569000Y-94590000D02*
X115569000Y-88290000D01*
X115609000Y-94622000D02*
X115609000Y-88258000D01*
X115649000Y-94653000D02*
X115649000Y-88227000D01*
X115689000Y-94683000D02*
X115689000Y-88197000D01*
X115729000Y-94712000D02*
X115729000Y-88168000D01*
X115769000Y-94741000D02*
X115769000Y-88139000D01*
X115809000Y-94769000D02*
X115809000Y-88111000D01*
X115849000Y-94796000D02*
X115849000Y-88084000D01*
X115889000Y-94823000D02*
X115889000Y-88057000D01*
X115929000Y-90460000D02*
X115929000Y-88032000D01*
X115929000Y-94848000D02*
X115929000Y-92420000D01*
X115969000Y-90460000D02*
X115969000Y-88006000D01*
X115969000Y-94874000D02*
X115969000Y-92420000D01*
X116009000Y-90460000D02*
X116009000Y-87982000D01*
X116009000Y-94898000D02*
X116009000Y-92420000D01*
X116049000Y-90460000D02*
X116049000Y-87958000D01*
X116049000Y-94922000D02*
X116049000Y-92420000D01*
X116089000Y-90460000D02*
X116089000Y-87935000D01*
X116089000Y-94945000D02*
X116089000Y-92420000D01*
X116129000Y-90460000D02*
X116129000Y-87912000D01*
X116129000Y-94968000D02*
X116129000Y-92420000D01*
X116169000Y-90460000D02*
X116169000Y-87890000D01*
X116169000Y-94990000D02*
X116169000Y-92420000D01*
X116209000Y-90460000D02*
X116209000Y-87868000D01*
X116209000Y-95012000D02*
X116209000Y-92420000D01*
X116249000Y-90460000D02*
X116249000Y-87847000D01*
X116249000Y-95033000D02*
X116249000Y-92420000D01*
X116289000Y-90460000D02*
X116289000Y-87827000D01*
X116289000Y-95053000D02*
X116289000Y-92420000D01*
X116329000Y-90460000D02*
X116329000Y-87807000D01*
X116329000Y-95073000D02*
X116329000Y-92420000D01*
X116369000Y-90460000D02*
X116369000Y-87788000D01*
X116369000Y-95092000D02*
X116369000Y-92420000D01*
X116409000Y-90460000D02*
X116409000Y-87769000D01*
X116409000Y-95111000D02*
X116409000Y-92420000D01*
X116449000Y-90460000D02*
X116449000Y-87750000D01*
X116449000Y-95130000D02*
X116449000Y-92420000D01*
X116489000Y-90460000D02*
X116489000Y-87733000D01*
X116489000Y-95147000D02*
X116489000Y-92420000D01*
X116529000Y-90460000D02*
X116529000Y-87715000D01*
X116529000Y-95165000D02*
X116529000Y-92420000D01*
X116569000Y-90460000D02*
X116569000Y-87699000D01*
X116569000Y-95181000D02*
X116569000Y-92420000D01*
X116609000Y-90460000D02*
X116609000Y-87682000D01*
X116609000Y-95198000D02*
X116609000Y-92420000D01*
X116649000Y-90460000D02*
X116649000Y-87667000D01*
X116649000Y-95213000D02*
X116649000Y-92420000D01*
X116689000Y-90460000D02*
X116689000Y-87651000D01*
X116689000Y-95229000D02*
X116689000Y-92420000D01*
X116729000Y-90460000D02*
X116729000Y-87637000D01*
X116729000Y-95243000D02*
X116729000Y-92420000D01*
X116769000Y-90460000D02*
X116769000Y-87622000D01*
X116769000Y-95258000D02*
X116769000Y-92420000D01*
X116809000Y-90460000D02*
X116809000Y-87608000D01*
X116809000Y-95272000D02*
X116809000Y-92420000D01*
X116849000Y-90460000D02*
X116849000Y-87595000D01*
X116849000Y-95285000D02*
X116849000Y-92420000D01*
X116889000Y-90460000D02*
X116889000Y-87582000D01*
X116889000Y-95298000D02*
X116889000Y-92420000D01*
X116929000Y-90460000D02*
X116929000Y-87570000D01*
X116929000Y-95310000D02*
X116929000Y-92420000D01*
X116969000Y-90460000D02*
X116969000Y-87557000D01*
X116969000Y-95323000D02*
X116969000Y-92420000D01*
X117009000Y-90460000D02*
X117009000Y-87546000D01*
X117009000Y-95334000D02*
X117009000Y-92420000D01*
X117049000Y-90460000D02*
X117049000Y-87535000D01*
X117049000Y-95345000D02*
X117049000Y-92420000D01*
X117089000Y-90460000D02*
X117089000Y-87524000D01*
X117089000Y-95356000D02*
X117089000Y-92420000D01*
X117129000Y-90460000D02*
X117129000Y-87514000D01*
X117129000Y-95366000D02*
X117129000Y-92420000D01*
X117169000Y-90460000D02*
X117169000Y-87504000D01*
X117169000Y-95376000D02*
X117169000Y-92420000D01*
X117209000Y-90460000D02*
X117209000Y-87494000D01*
X117209000Y-95386000D02*
X117209000Y-92420000D01*
X117249000Y-90460000D02*
X117249000Y-87485000D01*
X117249000Y-95395000D02*
X117249000Y-92420000D01*
X117289000Y-90460000D02*
X117289000Y-87477000D01*
X117289000Y-95403000D02*
X117289000Y-92420000D01*
X117329000Y-90460000D02*
X117329000Y-87469000D01*
X117329000Y-95411000D02*
X117329000Y-92420000D01*
X117369000Y-90460000D02*
X117369000Y-87461000D01*
X117369000Y-95419000D02*
X117369000Y-92420000D01*
X117409000Y-90460000D02*
X117409000Y-87453000D01*
X117409000Y-95427000D02*
X117409000Y-92420000D01*
X117450000Y-90460000D02*
X117450000Y-87446000D01*
X117450000Y-95434000D02*
X117450000Y-92420000D01*
X117490000Y-90460000D02*
X117490000Y-87440000D01*
X117490000Y-95440000D02*
X117490000Y-92420000D01*
X117530000Y-90460000D02*
X117530000Y-87434000D01*
X117530000Y-95446000D02*
X117530000Y-92420000D01*
X117570000Y-90460000D02*
X117570000Y-87428000D01*
X117570000Y-95452000D02*
X117570000Y-92420000D01*
X117610000Y-90460000D02*
X117610000Y-87423000D01*
X117610000Y-95457000D02*
X117610000Y-92420000D01*
X117650000Y-90460000D02*
X117650000Y-87418000D01*
X117650000Y-95462000D02*
X117650000Y-92420000D01*
X117690000Y-90460000D02*
X117690000Y-87413000D01*
X117690000Y-95467000D02*
X117690000Y-92420000D01*
X117730000Y-90460000D02*
X117730000Y-87409000D01*
X117730000Y-95471000D02*
X117730000Y-92420000D01*
X117770000Y-90460000D02*
X117770000Y-87405000D01*
X117770000Y-95475000D02*
X117770000Y-92420000D01*
X117810000Y-90460000D02*
X117810000Y-87402000D01*
X117810000Y-95478000D02*
X117810000Y-92420000D01*
X117850000Y-90460000D02*
X117850000Y-87399000D01*
X117850000Y-95481000D02*
X117850000Y-92420000D01*
X117890000Y-95483000D02*
X117890000Y-87397000D01*
X117930000Y-95486000D02*
X117930000Y-87394000D01*
X117970000Y-95487000D02*
X117970000Y-87393000D01*
X118010000Y-95489000D02*
X118010000Y-87391000D01*
X118050000Y-95490000D02*
X118050000Y-87390000D01*
X118090000Y-95490000D02*
X118090000Y-87390000D01*
X118130000Y-95490000D02*
X118130000Y-87390000D01*
X122220000Y-91440000D02*
G75*
G03*
X122220000Y-91440000I-4090000J0D01*
G01*
%TO.C,C14*%
X120980000Y-102250000D02*
X120980000Y-100950000D01*
X121580000Y-101600000D02*
X120380000Y-101600000D01*
X114049000Y-101846000D02*
X114049000Y-101354000D01*
X114089000Y-102198000D02*
X114089000Y-101002000D01*
X114129000Y-102414000D02*
X114129000Y-100786000D01*
X114169000Y-102583000D02*
X114169000Y-100617000D01*
X114209000Y-102727000D02*
X114209000Y-100473000D01*
X114249000Y-102854000D02*
X114249000Y-100346000D01*
X114289000Y-102969000D02*
X114289000Y-100231000D01*
X114329000Y-103073000D02*
X114329000Y-100127000D01*
X114369000Y-103170000D02*
X114369000Y-100030000D01*
X114409000Y-103260000D02*
X114409000Y-99940000D01*
X114449000Y-103345000D02*
X114449000Y-99855000D01*
X114489000Y-103426000D02*
X114489000Y-99774000D01*
X114529000Y-103502000D02*
X114529000Y-99698000D01*
X114569000Y-103574000D02*
X114569000Y-99626000D01*
X114609000Y-103643000D02*
X114609000Y-99557000D01*
X114649000Y-103709000D02*
X114649000Y-99491000D01*
X114689000Y-103773000D02*
X114689000Y-99427000D01*
X114729000Y-103834000D02*
X114729000Y-99366000D01*
X114769000Y-103893000D02*
X114769000Y-99307000D01*
X114809000Y-103949000D02*
X114809000Y-99251000D01*
X114849000Y-104004000D02*
X114849000Y-99196000D01*
X114889000Y-104057000D02*
X114889000Y-99143000D01*
X114929000Y-104108000D02*
X114929000Y-99092000D01*
X114969000Y-104157000D02*
X114969000Y-99043000D01*
X115009000Y-104205000D02*
X115009000Y-98995000D01*
X115049000Y-104252000D02*
X115049000Y-98948000D01*
X115089000Y-104297000D02*
X115089000Y-98903000D01*
X115129000Y-104340000D02*
X115129000Y-98860000D01*
X115169000Y-104383000D02*
X115169000Y-98817000D01*
X115209000Y-104424000D02*
X115209000Y-98776000D01*
X115249000Y-104465000D02*
X115249000Y-98735000D01*
X115289000Y-104504000D02*
X115289000Y-98696000D01*
X115329000Y-104542000D02*
X115329000Y-98658000D01*
X115369000Y-104579000D02*
X115369000Y-98621000D01*
X115409000Y-104615000D02*
X115409000Y-98585000D01*
X115449000Y-104650000D02*
X115449000Y-98550000D01*
X115489000Y-104684000D02*
X115489000Y-98516000D01*
X115529000Y-104718000D02*
X115529000Y-98482000D01*
X115569000Y-104750000D02*
X115569000Y-98450000D01*
X115609000Y-104782000D02*
X115609000Y-98418000D01*
X115649000Y-104813000D02*
X115649000Y-98387000D01*
X115689000Y-104843000D02*
X115689000Y-98357000D01*
X115729000Y-104872000D02*
X115729000Y-98328000D01*
X115769000Y-104901000D02*
X115769000Y-98299000D01*
X115809000Y-104929000D02*
X115809000Y-98271000D01*
X115849000Y-104956000D02*
X115849000Y-98244000D01*
X115889000Y-104983000D02*
X115889000Y-98217000D01*
X115929000Y-100620000D02*
X115929000Y-98192000D01*
X115929000Y-105008000D02*
X115929000Y-102580000D01*
X115969000Y-100620000D02*
X115969000Y-98166000D01*
X115969000Y-105034000D02*
X115969000Y-102580000D01*
X116009000Y-100620000D02*
X116009000Y-98142000D01*
X116009000Y-105058000D02*
X116009000Y-102580000D01*
X116049000Y-100620000D02*
X116049000Y-98118000D01*
X116049000Y-105082000D02*
X116049000Y-102580000D01*
X116089000Y-100620000D02*
X116089000Y-98095000D01*
X116089000Y-105105000D02*
X116089000Y-102580000D01*
X116129000Y-100620000D02*
X116129000Y-98072000D01*
X116129000Y-105128000D02*
X116129000Y-102580000D01*
X116169000Y-100620000D02*
X116169000Y-98050000D01*
X116169000Y-105150000D02*
X116169000Y-102580000D01*
X116209000Y-100620000D02*
X116209000Y-98028000D01*
X116209000Y-105172000D02*
X116209000Y-102580000D01*
X116249000Y-100620000D02*
X116249000Y-98007000D01*
X116249000Y-105193000D02*
X116249000Y-102580000D01*
X116289000Y-100620000D02*
X116289000Y-97987000D01*
X116289000Y-105213000D02*
X116289000Y-102580000D01*
X116329000Y-100620000D02*
X116329000Y-97967000D01*
X116329000Y-105233000D02*
X116329000Y-102580000D01*
X116369000Y-100620000D02*
X116369000Y-97948000D01*
X116369000Y-105252000D02*
X116369000Y-102580000D01*
X116409000Y-100620000D02*
X116409000Y-97929000D01*
X116409000Y-105271000D02*
X116409000Y-102580000D01*
X116449000Y-100620000D02*
X116449000Y-97910000D01*
X116449000Y-105290000D02*
X116449000Y-102580000D01*
X116489000Y-100620000D02*
X116489000Y-97893000D01*
X116489000Y-105307000D02*
X116489000Y-102580000D01*
X116529000Y-100620000D02*
X116529000Y-97875000D01*
X116529000Y-105325000D02*
X116529000Y-102580000D01*
X116569000Y-100620000D02*
X116569000Y-97859000D01*
X116569000Y-105341000D02*
X116569000Y-102580000D01*
X116609000Y-100620000D02*
X116609000Y-97842000D01*
X116609000Y-105358000D02*
X116609000Y-102580000D01*
X116649000Y-100620000D02*
X116649000Y-97827000D01*
X116649000Y-105373000D02*
X116649000Y-102580000D01*
X116689000Y-100620000D02*
X116689000Y-97811000D01*
X116689000Y-105389000D02*
X116689000Y-102580000D01*
X116729000Y-100620000D02*
X116729000Y-97797000D01*
X116729000Y-105403000D02*
X116729000Y-102580000D01*
X116769000Y-100620000D02*
X116769000Y-97782000D01*
X116769000Y-105418000D02*
X116769000Y-102580000D01*
X116809000Y-100620000D02*
X116809000Y-97768000D01*
X116809000Y-105432000D02*
X116809000Y-102580000D01*
X116849000Y-100620000D02*
X116849000Y-97755000D01*
X116849000Y-105445000D02*
X116849000Y-102580000D01*
X116889000Y-100620000D02*
X116889000Y-97742000D01*
X116889000Y-105458000D02*
X116889000Y-102580000D01*
X116929000Y-100620000D02*
X116929000Y-97730000D01*
X116929000Y-105470000D02*
X116929000Y-102580000D01*
X116969000Y-100620000D02*
X116969000Y-97717000D01*
X116969000Y-105483000D02*
X116969000Y-102580000D01*
X117009000Y-100620000D02*
X117009000Y-97706000D01*
X117009000Y-105494000D02*
X117009000Y-102580000D01*
X117049000Y-100620000D02*
X117049000Y-97695000D01*
X117049000Y-105505000D02*
X117049000Y-102580000D01*
X117089000Y-100620000D02*
X117089000Y-97684000D01*
X117089000Y-105516000D02*
X117089000Y-102580000D01*
X117129000Y-100620000D02*
X117129000Y-97674000D01*
X117129000Y-105526000D02*
X117129000Y-102580000D01*
X117169000Y-100620000D02*
X117169000Y-97664000D01*
X117169000Y-105536000D02*
X117169000Y-102580000D01*
X117209000Y-100620000D02*
X117209000Y-97654000D01*
X117209000Y-105546000D02*
X117209000Y-102580000D01*
X117249000Y-100620000D02*
X117249000Y-97645000D01*
X117249000Y-105555000D02*
X117249000Y-102580000D01*
X117289000Y-100620000D02*
X117289000Y-97637000D01*
X117289000Y-105563000D02*
X117289000Y-102580000D01*
X117329000Y-100620000D02*
X117329000Y-97629000D01*
X117329000Y-105571000D02*
X117329000Y-102580000D01*
X117369000Y-100620000D02*
X117369000Y-97621000D01*
X117369000Y-105579000D02*
X117369000Y-102580000D01*
X117409000Y-100620000D02*
X117409000Y-97613000D01*
X117409000Y-105587000D02*
X117409000Y-102580000D01*
X117450000Y-100620000D02*
X117450000Y-97606000D01*
X117450000Y-105594000D02*
X117450000Y-102580000D01*
X117490000Y-100620000D02*
X117490000Y-97600000D01*
X117490000Y-105600000D02*
X117490000Y-102580000D01*
X117530000Y-100620000D02*
X117530000Y-97594000D01*
X117530000Y-105606000D02*
X117530000Y-102580000D01*
X117570000Y-100620000D02*
X117570000Y-97588000D01*
X117570000Y-105612000D02*
X117570000Y-102580000D01*
X117610000Y-100620000D02*
X117610000Y-97583000D01*
X117610000Y-105617000D02*
X117610000Y-102580000D01*
X117650000Y-100620000D02*
X117650000Y-97578000D01*
X117650000Y-105622000D02*
X117650000Y-102580000D01*
X117690000Y-100620000D02*
X117690000Y-97573000D01*
X117690000Y-105627000D02*
X117690000Y-102580000D01*
X117730000Y-100620000D02*
X117730000Y-97569000D01*
X117730000Y-105631000D02*
X117730000Y-102580000D01*
X117770000Y-100620000D02*
X117770000Y-97565000D01*
X117770000Y-105635000D02*
X117770000Y-102580000D01*
X117810000Y-100620000D02*
X117810000Y-97562000D01*
X117810000Y-105638000D02*
X117810000Y-102580000D01*
X117850000Y-100620000D02*
X117850000Y-97559000D01*
X117850000Y-105641000D02*
X117850000Y-102580000D01*
X117890000Y-105643000D02*
X117890000Y-97557000D01*
X117930000Y-105646000D02*
X117930000Y-97554000D01*
X117970000Y-105647000D02*
X117970000Y-97553000D01*
X118010000Y-105649000D02*
X118010000Y-97551000D01*
X118050000Y-105650000D02*
X118050000Y-97550000D01*
X118090000Y-105650000D02*
X118090000Y-97550000D01*
X118130000Y-105650000D02*
X118130000Y-97550000D01*
X122220000Y-101600000D02*
G75*
G03*
X122220000Y-101600000I-4090000J0D01*
G01*
%TO.C,C13*%
X135270000Y-111470000D02*
X133970000Y-111470000D01*
X134620000Y-110870000D02*
X134620000Y-112070000D01*
X134866000Y-118401000D02*
X134374000Y-118401000D01*
X135218000Y-118361000D02*
X134022000Y-118361000D01*
X135434000Y-118321000D02*
X133806000Y-118321000D01*
X135603000Y-118281000D02*
X133637000Y-118281000D01*
X135747000Y-118241000D02*
X133493000Y-118241000D01*
X135874000Y-118201000D02*
X133366000Y-118201000D01*
X135989000Y-118161000D02*
X133251000Y-118161000D01*
X136093000Y-118121000D02*
X133147000Y-118121000D01*
X136190000Y-118081000D02*
X133050000Y-118081000D01*
X136280000Y-118041000D02*
X132960000Y-118041000D01*
X136365000Y-118001000D02*
X132875000Y-118001000D01*
X136446000Y-117961000D02*
X132794000Y-117961000D01*
X136522000Y-117921000D02*
X132718000Y-117921000D01*
X136594000Y-117881000D02*
X132646000Y-117881000D01*
X136663000Y-117841000D02*
X132577000Y-117841000D01*
X136729000Y-117801000D02*
X132511000Y-117801000D01*
X136793000Y-117761000D02*
X132447000Y-117761000D01*
X136854000Y-117721000D02*
X132386000Y-117721000D01*
X136913000Y-117681000D02*
X132327000Y-117681000D01*
X136969000Y-117641000D02*
X132271000Y-117641000D01*
X137024000Y-117601000D02*
X132216000Y-117601000D01*
X137077000Y-117561000D02*
X132163000Y-117561000D01*
X137128000Y-117521000D02*
X132112000Y-117521000D01*
X137177000Y-117481000D02*
X132063000Y-117481000D01*
X137225000Y-117441000D02*
X132015000Y-117441000D01*
X137272000Y-117401000D02*
X131968000Y-117401000D01*
X137317000Y-117361000D02*
X131923000Y-117361000D01*
X137360000Y-117321000D02*
X131880000Y-117321000D01*
X137403000Y-117281000D02*
X131837000Y-117281000D01*
X137444000Y-117241000D02*
X131796000Y-117241000D01*
X137485000Y-117201000D02*
X131755000Y-117201000D01*
X137524000Y-117161000D02*
X131716000Y-117161000D01*
X137562000Y-117121000D02*
X131678000Y-117121000D01*
X137599000Y-117081000D02*
X131641000Y-117081000D01*
X137635000Y-117041000D02*
X131605000Y-117041000D01*
X137670000Y-117001000D02*
X131570000Y-117001000D01*
X137704000Y-116961000D02*
X131536000Y-116961000D01*
X137738000Y-116921000D02*
X131502000Y-116921000D01*
X137770000Y-116881000D02*
X131470000Y-116881000D01*
X137802000Y-116841000D02*
X131438000Y-116841000D01*
X137833000Y-116801000D02*
X131407000Y-116801000D01*
X137863000Y-116761000D02*
X131377000Y-116761000D01*
X137892000Y-116721000D02*
X131348000Y-116721000D01*
X137921000Y-116681000D02*
X131319000Y-116681000D01*
X137949000Y-116641000D02*
X131291000Y-116641000D01*
X137976000Y-116601000D02*
X131264000Y-116601000D01*
X138003000Y-116561000D02*
X131237000Y-116561000D01*
X133640000Y-116521000D02*
X131212000Y-116521000D01*
X138028000Y-116521000D02*
X135600000Y-116521000D01*
X133640000Y-116481000D02*
X131186000Y-116481000D01*
X138054000Y-116481000D02*
X135600000Y-116481000D01*
X133640000Y-116441000D02*
X131162000Y-116441000D01*
X138078000Y-116441000D02*
X135600000Y-116441000D01*
X133640000Y-116401000D02*
X131138000Y-116401000D01*
X138102000Y-116401000D02*
X135600000Y-116401000D01*
X133640000Y-116361000D02*
X131115000Y-116361000D01*
X138125000Y-116361000D02*
X135600000Y-116361000D01*
X133640000Y-116321000D02*
X131092000Y-116321000D01*
X138148000Y-116321000D02*
X135600000Y-116321000D01*
X133640000Y-116281000D02*
X131070000Y-116281000D01*
X138170000Y-116281000D02*
X135600000Y-116281000D01*
X133640000Y-116241000D02*
X131048000Y-116241000D01*
X138192000Y-116241000D02*
X135600000Y-116241000D01*
X133640000Y-116201000D02*
X131027000Y-116201000D01*
X138213000Y-116201000D02*
X135600000Y-116201000D01*
X133640000Y-116161000D02*
X131007000Y-116161000D01*
X138233000Y-116161000D02*
X135600000Y-116161000D01*
X133640000Y-116121000D02*
X130987000Y-116121000D01*
X138253000Y-116121000D02*
X135600000Y-116121000D01*
X133640000Y-116081000D02*
X130968000Y-116081000D01*
X138272000Y-116081000D02*
X135600000Y-116081000D01*
X133640000Y-116041000D02*
X130949000Y-116041000D01*
X138291000Y-116041000D02*
X135600000Y-116041000D01*
X133640000Y-116001000D02*
X130930000Y-116001000D01*
X138310000Y-116001000D02*
X135600000Y-116001000D01*
X133640000Y-115961000D02*
X130913000Y-115961000D01*
X138327000Y-115961000D02*
X135600000Y-115961000D01*
X133640000Y-115921000D02*
X130895000Y-115921000D01*
X138345000Y-115921000D02*
X135600000Y-115921000D01*
X133640000Y-115881000D02*
X130879000Y-115881000D01*
X138361000Y-115881000D02*
X135600000Y-115881000D01*
X133640000Y-115841000D02*
X130862000Y-115841000D01*
X138378000Y-115841000D02*
X135600000Y-115841000D01*
X133640000Y-115801000D02*
X130847000Y-115801000D01*
X138393000Y-115801000D02*
X135600000Y-115801000D01*
X133640000Y-115761000D02*
X130831000Y-115761000D01*
X138409000Y-115761000D02*
X135600000Y-115761000D01*
X133640000Y-115721000D02*
X130817000Y-115721000D01*
X138423000Y-115721000D02*
X135600000Y-115721000D01*
X133640000Y-115681000D02*
X130802000Y-115681000D01*
X138438000Y-115681000D02*
X135600000Y-115681000D01*
X133640000Y-115641000D02*
X130788000Y-115641000D01*
X138452000Y-115641000D02*
X135600000Y-115641000D01*
X133640000Y-115601000D02*
X130775000Y-115601000D01*
X138465000Y-115601000D02*
X135600000Y-115601000D01*
X133640000Y-115561000D02*
X130762000Y-115561000D01*
X138478000Y-115561000D02*
X135600000Y-115561000D01*
X133640000Y-115521000D02*
X130750000Y-115521000D01*
X138490000Y-115521000D02*
X135600000Y-115521000D01*
X133640000Y-115481000D02*
X130737000Y-115481000D01*
X138503000Y-115481000D02*
X135600000Y-115481000D01*
X133640000Y-115441000D02*
X130726000Y-115441000D01*
X138514000Y-115441000D02*
X135600000Y-115441000D01*
X133640000Y-115401000D02*
X130715000Y-115401000D01*
X138525000Y-115401000D02*
X135600000Y-115401000D01*
X133640000Y-115361000D02*
X130704000Y-115361000D01*
X138536000Y-115361000D02*
X135600000Y-115361000D01*
X133640000Y-115321000D02*
X130694000Y-115321000D01*
X138546000Y-115321000D02*
X135600000Y-115321000D01*
X133640000Y-115281000D02*
X130684000Y-115281000D01*
X138556000Y-115281000D02*
X135600000Y-115281000D01*
X133640000Y-115241000D02*
X130674000Y-115241000D01*
X138566000Y-115241000D02*
X135600000Y-115241000D01*
X133640000Y-115201000D02*
X130665000Y-115201000D01*
X138575000Y-115201000D02*
X135600000Y-115201000D01*
X133640000Y-115161000D02*
X130657000Y-115161000D01*
X138583000Y-115161000D02*
X135600000Y-115161000D01*
X133640000Y-115121000D02*
X130649000Y-115121000D01*
X138591000Y-115121000D02*
X135600000Y-115121000D01*
X133640000Y-115081000D02*
X130641000Y-115081000D01*
X138599000Y-115081000D02*
X135600000Y-115081000D01*
X133640000Y-115041000D02*
X130633000Y-115041000D01*
X138607000Y-115041000D02*
X135600000Y-115041000D01*
X133640000Y-115000000D02*
X130626000Y-115000000D01*
X138614000Y-115000000D02*
X135600000Y-115000000D01*
X133640000Y-114960000D02*
X130620000Y-114960000D01*
X138620000Y-114960000D02*
X135600000Y-114960000D01*
X133640000Y-114920000D02*
X130614000Y-114920000D01*
X138626000Y-114920000D02*
X135600000Y-114920000D01*
X133640000Y-114880000D02*
X130608000Y-114880000D01*
X138632000Y-114880000D02*
X135600000Y-114880000D01*
X133640000Y-114840000D02*
X130603000Y-114840000D01*
X138637000Y-114840000D02*
X135600000Y-114840000D01*
X133640000Y-114800000D02*
X130598000Y-114800000D01*
X138642000Y-114800000D02*
X135600000Y-114800000D01*
X133640000Y-114760000D02*
X130593000Y-114760000D01*
X138647000Y-114760000D02*
X135600000Y-114760000D01*
X133640000Y-114720000D02*
X130589000Y-114720000D01*
X138651000Y-114720000D02*
X135600000Y-114720000D01*
X133640000Y-114680000D02*
X130585000Y-114680000D01*
X138655000Y-114680000D02*
X135600000Y-114680000D01*
X133640000Y-114640000D02*
X130582000Y-114640000D01*
X138658000Y-114640000D02*
X135600000Y-114640000D01*
X133640000Y-114600000D02*
X130579000Y-114600000D01*
X138661000Y-114600000D02*
X135600000Y-114600000D01*
X138663000Y-114560000D02*
X130577000Y-114560000D01*
X138666000Y-114520000D02*
X130574000Y-114520000D01*
X138667000Y-114480000D02*
X130573000Y-114480000D01*
X138669000Y-114440000D02*
X130571000Y-114440000D01*
X138670000Y-114400000D02*
X130570000Y-114400000D01*
X138670000Y-114360000D02*
X130570000Y-114360000D01*
X138670000Y-114320000D02*
X130570000Y-114320000D01*
X138710000Y-114320000D02*
G75*
G03*
X138710000Y-114320000I-4090000J0D01*
G01*
%TO.C,C10*%
X127274000Y-113495000D02*
X126960000Y-113495000D01*
X129580000Y-113495000D02*
X129266000Y-113495000D01*
X127274000Y-108675000D02*
X126960000Y-108675000D01*
X129580000Y-108675000D02*
X129266000Y-108675000D01*
X126960000Y-108675000D02*
X126960000Y-113495000D01*
X129580000Y-108675000D02*
X129580000Y-113495000D01*
%TO.C,C11*%
X141244000Y-114765000D02*
X140930000Y-114765000D01*
X143550000Y-114765000D02*
X143236000Y-114765000D01*
X141244000Y-109945000D02*
X140930000Y-109945000D01*
X143550000Y-109945000D02*
X143236000Y-109945000D01*
X140930000Y-109945000D02*
X140930000Y-114765000D01*
X143550000Y-109945000D02*
X143550000Y-114765000D01*
%TO.C,C9*%
X148760000Y-103144000D02*
X148760000Y-102830000D01*
X148760000Y-105450000D02*
X148760000Y-105136000D01*
X153580000Y-103144000D02*
X153580000Y-102830000D01*
X153580000Y-105450000D02*
X153580000Y-105136000D01*
X153580000Y-102830000D02*
X148760000Y-102830000D01*
X153580000Y-105450000D02*
X148760000Y-105450000D01*
%TO.C,C8*%
X150030000Y-85364000D02*
X150030000Y-85050000D01*
X150030000Y-87670000D02*
X150030000Y-87356000D01*
X154850000Y-85364000D02*
X154850000Y-85050000D01*
X154850000Y-87670000D02*
X154850000Y-87356000D01*
X154850000Y-85050000D02*
X150030000Y-85050000D01*
X154850000Y-87670000D02*
X150030000Y-87670000D01*
%TO.C,C7*%
X170800000Y-84785000D02*
X172100000Y-84785000D01*
X171450000Y-85385000D02*
X171450000Y-84185000D01*
X171204000Y-77854000D02*
X171696000Y-77854000D01*
X170852000Y-77894000D02*
X172048000Y-77894000D01*
X170636000Y-77934000D02*
X172264000Y-77934000D01*
X170467000Y-77974000D02*
X172433000Y-77974000D01*
X170323000Y-78014000D02*
X172577000Y-78014000D01*
X170196000Y-78054000D02*
X172704000Y-78054000D01*
X170081000Y-78094000D02*
X172819000Y-78094000D01*
X169977000Y-78134000D02*
X172923000Y-78134000D01*
X169880000Y-78174000D02*
X173020000Y-78174000D01*
X169790000Y-78214000D02*
X173110000Y-78214000D01*
X169705000Y-78254000D02*
X173195000Y-78254000D01*
X169624000Y-78294000D02*
X173276000Y-78294000D01*
X169548000Y-78334000D02*
X173352000Y-78334000D01*
X169476000Y-78374000D02*
X173424000Y-78374000D01*
X169407000Y-78414000D02*
X173493000Y-78414000D01*
X169341000Y-78454000D02*
X173559000Y-78454000D01*
X169277000Y-78494000D02*
X173623000Y-78494000D01*
X169216000Y-78534000D02*
X173684000Y-78534000D01*
X169157000Y-78574000D02*
X173743000Y-78574000D01*
X169101000Y-78614000D02*
X173799000Y-78614000D01*
X169046000Y-78654000D02*
X173854000Y-78654000D01*
X168993000Y-78694000D02*
X173907000Y-78694000D01*
X168942000Y-78734000D02*
X173958000Y-78734000D01*
X168893000Y-78774000D02*
X174007000Y-78774000D01*
X168845000Y-78814000D02*
X174055000Y-78814000D01*
X168798000Y-78854000D02*
X174102000Y-78854000D01*
X168753000Y-78894000D02*
X174147000Y-78894000D01*
X168710000Y-78934000D02*
X174190000Y-78934000D01*
X168667000Y-78974000D02*
X174233000Y-78974000D01*
X168626000Y-79014000D02*
X174274000Y-79014000D01*
X168585000Y-79054000D02*
X174315000Y-79054000D01*
X168546000Y-79094000D02*
X174354000Y-79094000D01*
X168508000Y-79134000D02*
X174392000Y-79134000D01*
X168471000Y-79174000D02*
X174429000Y-79174000D01*
X168435000Y-79214000D02*
X174465000Y-79214000D01*
X168400000Y-79254000D02*
X174500000Y-79254000D01*
X168366000Y-79294000D02*
X174534000Y-79294000D01*
X168332000Y-79334000D02*
X174568000Y-79334000D01*
X168300000Y-79374000D02*
X174600000Y-79374000D01*
X168268000Y-79414000D02*
X174632000Y-79414000D01*
X168237000Y-79454000D02*
X174663000Y-79454000D01*
X168207000Y-79494000D02*
X174693000Y-79494000D01*
X168178000Y-79534000D02*
X174722000Y-79534000D01*
X168149000Y-79574000D02*
X174751000Y-79574000D01*
X168121000Y-79614000D02*
X174779000Y-79614000D01*
X168094000Y-79654000D02*
X174806000Y-79654000D01*
X168067000Y-79694000D02*
X174833000Y-79694000D01*
X172430000Y-79734000D02*
X174858000Y-79734000D01*
X168042000Y-79734000D02*
X170470000Y-79734000D01*
X172430000Y-79774000D02*
X174884000Y-79774000D01*
X168016000Y-79774000D02*
X170470000Y-79774000D01*
X172430000Y-79814000D02*
X174908000Y-79814000D01*
X167992000Y-79814000D02*
X170470000Y-79814000D01*
X172430000Y-79854000D02*
X174932000Y-79854000D01*
X167968000Y-79854000D02*
X170470000Y-79854000D01*
X172430000Y-79894000D02*
X174955000Y-79894000D01*
X167945000Y-79894000D02*
X170470000Y-79894000D01*
X172430000Y-79934000D02*
X174978000Y-79934000D01*
X167922000Y-79934000D02*
X170470000Y-79934000D01*
X172430000Y-79974000D02*
X175000000Y-79974000D01*
X167900000Y-79974000D02*
X170470000Y-79974000D01*
X172430000Y-80014000D02*
X175022000Y-80014000D01*
X167878000Y-80014000D02*
X170470000Y-80014000D01*
X172430000Y-80054000D02*
X175043000Y-80054000D01*
X167857000Y-80054000D02*
X170470000Y-80054000D01*
X172430000Y-80094000D02*
X175063000Y-80094000D01*
X167837000Y-80094000D02*
X170470000Y-80094000D01*
X172430000Y-80134000D02*
X175083000Y-80134000D01*
X167817000Y-80134000D02*
X170470000Y-80134000D01*
X172430000Y-80174000D02*
X175102000Y-80174000D01*
X167798000Y-80174000D02*
X170470000Y-80174000D01*
X172430000Y-80214000D02*
X175121000Y-80214000D01*
X167779000Y-80214000D02*
X170470000Y-80214000D01*
X172430000Y-80254000D02*
X175140000Y-80254000D01*
X167760000Y-80254000D02*
X170470000Y-80254000D01*
X172430000Y-80294000D02*
X175157000Y-80294000D01*
X167743000Y-80294000D02*
X170470000Y-80294000D01*
X172430000Y-80334000D02*
X175175000Y-80334000D01*
X167725000Y-80334000D02*
X170470000Y-80334000D01*
X172430000Y-80374000D02*
X175191000Y-80374000D01*
X167709000Y-80374000D02*
X170470000Y-80374000D01*
X172430000Y-80414000D02*
X175208000Y-80414000D01*
X167692000Y-80414000D02*
X170470000Y-80414000D01*
X172430000Y-80454000D02*
X175223000Y-80454000D01*
X167677000Y-80454000D02*
X170470000Y-80454000D01*
X172430000Y-80494000D02*
X175239000Y-80494000D01*
X167661000Y-80494000D02*
X170470000Y-80494000D01*
X172430000Y-80534000D02*
X175253000Y-80534000D01*
X167647000Y-80534000D02*
X170470000Y-80534000D01*
X172430000Y-80574000D02*
X175268000Y-80574000D01*
X167632000Y-80574000D02*
X170470000Y-80574000D01*
X172430000Y-80614000D02*
X175282000Y-80614000D01*
X167618000Y-80614000D02*
X170470000Y-80614000D01*
X172430000Y-80654000D02*
X175295000Y-80654000D01*
X167605000Y-80654000D02*
X170470000Y-80654000D01*
X172430000Y-80694000D02*
X175308000Y-80694000D01*
X167592000Y-80694000D02*
X170470000Y-80694000D01*
X172430000Y-80734000D02*
X175320000Y-80734000D01*
X167580000Y-80734000D02*
X170470000Y-80734000D01*
X172430000Y-80774000D02*
X175333000Y-80774000D01*
X167567000Y-80774000D02*
X170470000Y-80774000D01*
X172430000Y-80814000D02*
X175344000Y-80814000D01*
X167556000Y-80814000D02*
X170470000Y-80814000D01*
X172430000Y-80854000D02*
X175355000Y-80854000D01*
X167545000Y-80854000D02*
X170470000Y-80854000D01*
X172430000Y-80894000D02*
X175366000Y-80894000D01*
X167534000Y-80894000D02*
X170470000Y-80894000D01*
X172430000Y-80934000D02*
X175376000Y-80934000D01*
X167524000Y-80934000D02*
X170470000Y-80934000D01*
X172430000Y-80974000D02*
X175386000Y-80974000D01*
X167514000Y-80974000D02*
X170470000Y-80974000D01*
X172430000Y-81014000D02*
X175396000Y-81014000D01*
X167504000Y-81014000D02*
X170470000Y-81014000D01*
X172430000Y-81054000D02*
X175405000Y-81054000D01*
X167495000Y-81054000D02*
X170470000Y-81054000D01*
X172430000Y-81094000D02*
X175413000Y-81094000D01*
X167487000Y-81094000D02*
X170470000Y-81094000D01*
X172430000Y-81134000D02*
X175421000Y-81134000D01*
X167479000Y-81134000D02*
X170470000Y-81134000D01*
X172430000Y-81174000D02*
X175429000Y-81174000D01*
X167471000Y-81174000D02*
X170470000Y-81174000D01*
X172430000Y-81214000D02*
X175437000Y-81214000D01*
X167463000Y-81214000D02*
X170470000Y-81214000D01*
X172430000Y-81255000D02*
X175444000Y-81255000D01*
X167456000Y-81255000D02*
X170470000Y-81255000D01*
X172430000Y-81295000D02*
X175450000Y-81295000D01*
X167450000Y-81295000D02*
X170470000Y-81295000D01*
X172430000Y-81335000D02*
X175456000Y-81335000D01*
X167444000Y-81335000D02*
X170470000Y-81335000D01*
X172430000Y-81375000D02*
X175462000Y-81375000D01*
X167438000Y-81375000D02*
X170470000Y-81375000D01*
X172430000Y-81415000D02*
X175467000Y-81415000D01*
X167433000Y-81415000D02*
X170470000Y-81415000D01*
X172430000Y-81455000D02*
X175472000Y-81455000D01*
X167428000Y-81455000D02*
X170470000Y-81455000D01*
X172430000Y-81495000D02*
X175477000Y-81495000D01*
X167423000Y-81495000D02*
X170470000Y-81495000D01*
X172430000Y-81535000D02*
X175481000Y-81535000D01*
X167419000Y-81535000D02*
X170470000Y-81535000D01*
X172430000Y-81575000D02*
X175485000Y-81575000D01*
X167415000Y-81575000D02*
X170470000Y-81575000D01*
X172430000Y-81615000D02*
X175488000Y-81615000D01*
X167412000Y-81615000D02*
X170470000Y-81615000D01*
X172430000Y-81655000D02*
X175491000Y-81655000D01*
X167409000Y-81655000D02*
X170470000Y-81655000D01*
X167407000Y-81695000D02*
X175493000Y-81695000D01*
X167404000Y-81735000D02*
X175496000Y-81735000D01*
X167403000Y-81775000D02*
X175497000Y-81775000D01*
X167401000Y-81815000D02*
X175499000Y-81815000D01*
X167400000Y-81855000D02*
X175500000Y-81855000D01*
X167400000Y-81895000D02*
X175500000Y-81895000D01*
X167400000Y-81935000D02*
X175500000Y-81935000D01*
X175540000Y-81935000D02*
G75*
G03*
X175540000Y-81935000I-4090000J0D01*
G01*
%TO.C,C6*%
X163556000Y-80180000D02*
X163870000Y-80180000D01*
X161250000Y-80180000D02*
X161564000Y-80180000D01*
X163556000Y-85000000D02*
X163870000Y-85000000D01*
X161250000Y-85000000D02*
X161564000Y-85000000D01*
X163870000Y-85000000D02*
X163870000Y-80180000D01*
X161250000Y-85000000D02*
X161250000Y-80180000D01*
%TO.C,C5*%
X171915000Y-103866000D02*
X171915000Y-104180000D01*
X171915000Y-101560000D02*
X171915000Y-101874000D01*
X167095000Y-103866000D02*
X167095000Y-104180000D01*
X167095000Y-101560000D02*
X167095000Y-101874000D01*
X167095000Y-104180000D02*
X171915000Y-104180000D01*
X167095000Y-101560000D02*
X171915000Y-101560000D01*
%TO.C,C4*%
X127170000Y-84094000D02*
X127170000Y-83780000D01*
X127170000Y-86400000D02*
X127170000Y-86086000D01*
X131990000Y-84094000D02*
X131990000Y-83780000D01*
X131990000Y-86400000D02*
X131990000Y-86086000D01*
X131990000Y-83780000D02*
X127170000Y-83780000D01*
X131990000Y-86400000D02*
X127170000Y-86400000D01*
%TO.C,C3*%
X132250000Y-91714000D02*
X132250000Y-91400000D01*
X132250000Y-94020000D02*
X132250000Y-93706000D01*
X137070000Y-91714000D02*
X137070000Y-91400000D01*
X137070000Y-94020000D02*
X137070000Y-93706000D01*
X137070000Y-91400000D02*
X132250000Y-91400000D01*
X137070000Y-94020000D02*
X132250000Y-94020000D01*
%TO.C,C2*%
X127170000Y-87904000D02*
X127170000Y-87590000D01*
X127170000Y-90210000D02*
X127170000Y-89896000D01*
X131990000Y-87904000D02*
X131990000Y-87590000D01*
X131990000Y-90210000D02*
X131990000Y-89896000D01*
X131990000Y-87590000D02*
X127170000Y-87590000D01*
X131990000Y-90210000D02*
X127170000Y-90210000D01*
%TO.C,U5*%
D10*
X156718095Y-112757380D02*
X156718095Y-113566904D01*
X156765714Y-113662142D01*
X156813333Y-113709761D01*
X156908571Y-113757380D01*
X157099047Y-113757380D01*
X157194285Y-113709761D01*
X157241904Y-113662142D01*
X157289523Y-113566904D01*
X157289523Y-112757380D01*
X158241904Y-112757380D02*
X157765714Y-112757380D01*
X157718095Y-113233571D01*
X157765714Y-113185952D01*
X157860952Y-113138333D01*
X158099047Y-113138333D01*
X158194285Y-113185952D01*
X158241904Y-113233571D01*
X158289523Y-113328809D01*
X158289523Y-113566904D01*
X158241904Y-113662142D01*
X158194285Y-113709761D01*
X158099047Y-113757380D01*
X157860952Y-113757380D01*
X157765714Y-113709761D01*
X157718095Y-113662142D01*
%TO.C,L1*%
X167627380Y-96686666D02*
X167627380Y-97162857D01*
X166627380Y-97162857D01*
X167627380Y-95829523D02*
X167627380Y-96400952D01*
X167627380Y-96115238D02*
X166627380Y-96115238D01*
X166770238Y-96210476D01*
X166865476Y-96305714D01*
X166913095Y-96400952D01*
%TO.C,C1*%
X125452142Y-74461666D02*
X125499761Y-74509285D01*
X125547380Y-74652142D01*
X125547380Y-74747380D01*
X125499761Y-74890238D01*
X125404523Y-74985476D01*
X125309285Y-75033095D01*
X125118809Y-75080714D01*
X124975952Y-75080714D01*
X124785476Y-75033095D01*
X124690238Y-74985476D01*
X124595000Y-74890238D01*
X124547380Y-74747380D01*
X124547380Y-74652142D01*
X124595000Y-74509285D01*
X124642619Y-74461666D01*
X125547380Y-73509285D02*
X125547380Y-74080714D01*
X125547380Y-73795000D02*
X124547380Y-73795000D01*
X124690238Y-73890238D01*
X124785476Y-73985476D01*
X124833095Y-74080714D01*
%TO.C,X1*%
X113577619Y-76660476D02*
X112577619Y-77327142D01*
X113577619Y-77327142D02*
X112577619Y-76660476D01*
X112577619Y-78231904D02*
X112577619Y-77660476D01*
X112577619Y-77946190D02*
X113577619Y-77946190D01*
X113434761Y-77850952D01*
X113339523Y-77755714D01*
X113291904Y-77660476D01*
%TO.C,C12*%
X124817142Y-94622857D02*
X124864761Y-94670476D01*
X124912380Y-94813333D01*
X124912380Y-94908571D01*
X124864761Y-95051428D01*
X124769523Y-95146666D01*
X124674285Y-95194285D01*
X124483809Y-95241904D01*
X124340952Y-95241904D01*
X124150476Y-95194285D01*
X124055238Y-95146666D01*
X123960000Y-95051428D01*
X123912380Y-94908571D01*
X123912380Y-94813333D01*
X123960000Y-94670476D01*
X124007619Y-94622857D01*
X124912380Y-93670476D02*
X124912380Y-94241904D01*
X124912380Y-93956190D02*
X123912380Y-93956190D01*
X124055238Y-94051428D01*
X124150476Y-94146666D01*
X124198095Y-94241904D01*
X124007619Y-93289523D02*
X123960000Y-93241904D01*
X123912380Y-93146666D01*
X123912380Y-92908571D01*
X123960000Y-92813333D01*
X124007619Y-92765714D01*
X124102857Y-92718095D01*
X124198095Y-92718095D01*
X124340952Y-92765714D01*
X124912380Y-93337142D01*
X124912380Y-92718095D01*
%TO.C,JP2*%
X127722380Y-96083333D02*
X128436666Y-96083333D01*
X128579523Y-96130952D01*
X128674761Y-96226190D01*
X128722380Y-96369047D01*
X128722380Y-96464285D01*
X128722380Y-95607142D02*
X127722380Y-95607142D01*
X127722380Y-95226190D01*
X127770000Y-95130952D01*
X127817619Y-95083333D01*
X127912857Y-95035714D01*
X128055714Y-95035714D01*
X128150952Y-95083333D01*
X128198571Y-95130952D01*
X128246190Y-95226190D01*
X128246190Y-95607142D01*
X127817619Y-94654761D02*
X127770000Y-94607142D01*
X127722380Y-94511904D01*
X127722380Y-94273809D01*
X127770000Y-94178571D01*
X127817619Y-94130952D01*
X127912857Y-94083333D01*
X128008095Y-94083333D01*
X128150952Y-94130952D01*
X128722380Y-94702380D01*
X128722380Y-94083333D01*
%TO.C,JP1*%
X140422380Y-98623333D02*
X141136666Y-98623333D01*
X141279523Y-98670952D01*
X141374761Y-98766190D01*
X141422380Y-98909047D01*
X141422380Y-99004285D01*
X141422380Y-98147142D02*
X140422380Y-98147142D01*
X140422380Y-97766190D01*
X140470000Y-97670952D01*
X140517619Y-97623333D01*
X140612857Y-97575714D01*
X140755714Y-97575714D01*
X140850952Y-97623333D01*
X140898571Y-97670952D01*
X140946190Y-97766190D01*
X140946190Y-98147142D01*
X141422380Y-96623333D02*
X141422380Y-97194761D01*
X141422380Y-96909047D02*
X140422380Y-96909047D01*
X140565238Y-97004285D01*
X140660476Y-97099523D01*
X140708095Y-97194761D01*
%TO.C,J3*%
X112696666Y-122642380D02*
X112696666Y-123356666D01*
X112649047Y-123499523D01*
X112553809Y-123594761D01*
X112410952Y-123642380D01*
X112315714Y-123642380D01*
X113077619Y-122642380D02*
X113696666Y-122642380D01*
X113363333Y-123023333D01*
X113506190Y-123023333D01*
X113601428Y-123070952D01*
X113649047Y-123118571D01*
X113696666Y-123213809D01*
X113696666Y-123451904D01*
X113649047Y-123547142D01*
X113601428Y-123594761D01*
X113506190Y-123642380D01*
X113220476Y-123642380D01*
X113125238Y-123594761D01*
X113077619Y-123547142D01*
%TO.C,J6*%
X155198380Y-73993333D02*
X155912666Y-73993333D01*
X156055523Y-74040952D01*
X156150761Y-74136190D01*
X156198380Y-74279047D01*
X156198380Y-74374285D01*
X155198380Y-73088571D02*
X155198380Y-73279047D01*
X155246000Y-73374285D01*
X155293619Y-73421904D01*
X155436476Y-73517142D01*
X155626952Y-73564761D01*
X156007904Y-73564761D01*
X156103142Y-73517142D01*
X156150761Y-73469523D01*
X156198380Y-73374285D01*
X156198380Y-73183809D01*
X156150761Y-73088571D01*
X156103142Y-73040952D01*
X156007904Y-72993333D01*
X155769809Y-72993333D01*
X155674571Y-73040952D01*
X155626952Y-73088571D01*
X155579333Y-73183809D01*
X155579333Y-73374285D01*
X155626952Y-73469523D01*
X155674571Y-73517142D01*
X155769809Y-73564761D01*
%TO.C,TP4*%
X144788095Y-93432380D02*
X145359523Y-93432380D01*
X145073809Y-94432380D02*
X145073809Y-93432380D01*
X145692857Y-94432380D02*
X145692857Y-93432380D01*
X146073809Y-93432380D01*
X146169047Y-93480000D01*
X146216666Y-93527619D01*
X146264285Y-93622857D01*
X146264285Y-93765714D01*
X146216666Y-93860952D01*
X146169047Y-93908571D01*
X146073809Y-93956190D01*
X145692857Y-93956190D01*
X147121428Y-93765714D02*
X147121428Y-94432380D01*
X146883333Y-93384761D02*
X146645238Y-94099047D01*
X147264285Y-94099047D01*
%TO.C,TP3*%
X144788095Y-88352380D02*
X145359523Y-88352380D01*
X145073809Y-89352380D02*
X145073809Y-88352380D01*
X145692857Y-89352380D02*
X145692857Y-88352380D01*
X146073809Y-88352380D01*
X146169047Y-88400000D01*
X146216666Y-88447619D01*
X146264285Y-88542857D01*
X146264285Y-88685714D01*
X146216666Y-88780952D01*
X146169047Y-88828571D01*
X146073809Y-88876190D01*
X145692857Y-88876190D01*
X146597619Y-88352380D02*
X147216666Y-88352380D01*
X146883333Y-88733333D01*
X147026190Y-88733333D01*
X147121428Y-88780952D01*
X147169047Y-88828571D01*
X147216666Y-88923809D01*
X147216666Y-89161904D01*
X147169047Y-89257142D01*
X147121428Y-89304761D01*
X147026190Y-89352380D01*
X146740476Y-89352380D01*
X146645238Y-89304761D01*
X146597619Y-89257142D01*
%TO.C,U4*%
X136398095Y-95972380D02*
X136398095Y-96781904D01*
X136445714Y-96877142D01*
X136493333Y-96924761D01*
X136588571Y-96972380D01*
X136779047Y-96972380D01*
X136874285Y-96924761D01*
X136921904Y-96877142D01*
X136969523Y-96781904D01*
X136969523Y-95972380D01*
X137874285Y-96305714D02*
X137874285Y-96972380D01*
X137636190Y-95924761D02*
X137398095Y-96639047D01*
X138017142Y-96639047D01*
%TO.C,U3*%
X150676095Y-97412380D02*
X150676095Y-98221904D01*
X150723714Y-98317142D01*
X150771333Y-98364761D01*
X150866571Y-98412380D01*
X151057047Y-98412380D01*
X151152285Y-98364761D01*
X151199904Y-98317142D01*
X151247523Y-98221904D01*
X151247523Y-97412380D01*
X151628476Y-97412380D02*
X152247523Y-97412380D01*
X151914190Y-97793333D01*
X152057047Y-97793333D01*
X152152285Y-97840952D01*
X152199904Y-97888571D01*
X152247523Y-97983809D01*
X152247523Y-98221904D01*
X152199904Y-98317142D01*
X152152285Y-98364761D01*
X152057047Y-98412380D01*
X151771333Y-98412380D01*
X151676095Y-98364761D01*
X151628476Y-98317142D01*
%TO.C,U2*%
X151003095Y-94702380D02*
X151003095Y-95511904D01*
X151050714Y-95607142D01*
X151098333Y-95654761D01*
X151193571Y-95702380D01*
X151384047Y-95702380D01*
X151479285Y-95654761D01*
X151526904Y-95607142D01*
X151574523Y-95511904D01*
X151574523Y-94702380D01*
X152003095Y-94797619D02*
X152050714Y-94750000D01*
X152145952Y-94702380D01*
X152384047Y-94702380D01*
X152479285Y-94750000D01*
X152526904Y-94797619D01*
X152574523Y-94892857D01*
X152574523Y-94988095D01*
X152526904Y-95130952D01*
X151955476Y-95702380D01*
X152574523Y-95702380D01*
%TO.C,U1*%
X136398095Y-85852380D02*
X136398095Y-86661904D01*
X136445714Y-86757142D01*
X136493333Y-86804761D01*
X136588571Y-86852380D01*
X136779047Y-86852380D01*
X136874285Y-86804761D01*
X136921904Y-86757142D01*
X136969523Y-86661904D01*
X136969523Y-85852380D01*
X137969523Y-86852380D02*
X137398095Y-86852380D01*
X137683809Y-86852380D02*
X137683809Y-85852380D01*
X137588571Y-85995238D01*
X137493333Y-86090476D01*
X137398095Y-86138095D01*
%TO.C,TP6*%
X160028095Y-90892380D02*
X160599523Y-90892380D01*
X160313809Y-91892380D02*
X160313809Y-90892380D01*
X160932857Y-91892380D02*
X160932857Y-90892380D01*
X161313809Y-90892380D01*
X161409047Y-90940000D01*
X161456666Y-90987619D01*
X161504285Y-91082857D01*
X161504285Y-91225714D01*
X161456666Y-91320952D01*
X161409047Y-91368571D01*
X161313809Y-91416190D01*
X160932857Y-91416190D01*
X162361428Y-90892380D02*
X162170952Y-90892380D01*
X162075714Y-90940000D01*
X162028095Y-90987619D01*
X161932857Y-91130476D01*
X161885238Y-91320952D01*
X161885238Y-91701904D01*
X161932857Y-91797142D01*
X161980476Y-91844761D01*
X162075714Y-91892380D01*
X162266190Y-91892380D01*
X162361428Y-91844761D01*
X162409047Y-91797142D01*
X162456666Y-91701904D01*
X162456666Y-91463809D01*
X162409047Y-91368571D01*
X162361428Y-91320952D01*
X162266190Y-91273333D01*
X162075714Y-91273333D01*
X161980476Y-91320952D01*
X161932857Y-91368571D01*
X161885238Y-91463809D01*
%TO.C,TP5*%
X160028095Y-95972380D02*
X160599523Y-95972380D01*
X160313809Y-96972380D02*
X160313809Y-95972380D01*
X160932857Y-96972380D02*
X160932857Y-95972380D01*
X161313809Y-95972380D01*
X161409047Y-96020000D01*
X161456666Y-96067619D01*
X161504285Y-96162857D01*
X161504285Y-96305714D01*
X161456666Y-96400952D01*
X161409047Y-96448571D01*
X161313809Y-96496190D01*
X160932857Y-96496190D01*
X162409047Y-95972380D02*
X161932857Y-95972380D01*
X161885238Y-96448571D01*
X161932857Y-96400952D01*
X162028095Y-96353333D01*
X162266190Y-96353333D01*
X162361428Y-96400952D01*
X162409047Y-96448571D01*
X162456666Y-96543809D01*
X162456666Y-96781904D01*
X162409047Y-96877142D01*
X162361428Y-96924761D01*
X162266190Y-96972380D01*
X162028095Y-96972380D01*
X161932857Y-96924761D01*
X161885238Y-96877142D01*
%TO.C,TP2*%
X144788095Y-83272380D02*
X145359523Y-83272380D01*
X145073809Y-84272380D02*
X145073809Y-83272380D01*
X145692857Y-84272380D02*
X145692857Y-83272380D01*
X146073809Y-83272380D01*
X146169047Y-83320000D01*
X146216666Y-83367619D01*
X146264285Y-83462857D01*
X146264285Y-83605714D01*
X146216666Y-83700952D01*
X146169047Y-83748571D01*
X146073809Y-83796190D01*
X145692857Y-83796190D01*
X146645238Y-83367619D02*
X146692857Y-83320000D01*
X146788095Y-83272380D01*
X147026190Y-83272380D01*
X147121428Y-83320000D01*
X147169047Y-83367619D01*
X147216666Y-83462857D01*
X147216666Y-83558095D01*
X147169047Y-83700952D01*
X146597619Y-84272380D01*
X147216666Y-84272380D01*
%TO.C,TP1*%
X160663095Y-76287380D02*
X161234523Y-76287380D01*
X160948809Y-77287380D02*
X160948809Y-76287380D01*
X161567857Y-77287380D02*
X161567857Y-76287380D01*
X161948809Y-76287380D01*
X162044047Y-76335000D01*
X162091666Y-76382619D01*
X162139285Y-76477857D01*
X162139285Y-76620714D01*
X162091666Y-76715952D01*
X162044047Y-76763571D01*
X161948809Y-76811190D01*
X161567857Y-76811190D01*
X163091666Y-77287380D02*
X162520238Y-77287380D01*
X162805952Y-77287380D02*
X162805952Y-76287380D01*
X162710714Y-76430238D01*
X162615476Y-76525476D01*
X162520238Y-76573095D01*
%TO.C,R6*%
X123642380Y-108751666D02*
X123166190Y-109085000D01*
X123642380Y-109323095D02*
X122642380Y-109323095D01*
X122642380Y-108942142D01*
X122690000Y-108846904D01*
X122737619Y-108799285D01*
X122832857Y-108751666D01*
X122975714Y-108751666D01*
X123070952Y-108799285D01*
X123118571Y-108846904D01*
X123166190Y-108942142D01*
X123166190Y-109323095D01*
X122642380Y-107894523D02*
X122642380Y-108085000D01*
X122690000Y-108180238D01*
X122737619Y-108227857D01*
X122880476Y-108323095D01*
X123070952Y-108370714D01*
X123451904Y-108370714D01*
X123547142Y-108323095D01*
X123594761Y-108275476D01*
X123642380Y-108180238D01*
X123642380Y-107989761D01*
X123594761Y-107894523D01*
X123547142Y-107846904D01*
X123451904Y-107799285D01*
X123213809Y-107799285D01*
X123118571Y-107846904D01*
X123070952Y-107894523D01*
X123023333Y-107989761D01*
X123023333Y-108180238D01*
X123070952Y-108275476D01*
X123118571Y-108323095D01*
X123213809Y-108370714D01*
%TO.C,R5*%
X145867380Y-101131666D02*
X145391190Y-101465000D01*
X145867380Y-101703095D02*
X144867380Y-101703095D01*
X144867380Y-101322142D01*
X144915000Y-101226904D01*
X144962619Y-101179285D01*
X145057857Y-101131666D01*
X145200714Y-101131666D01*
X145295952Y-101179285D01*
X145343571Y-101226904D01*
X145391190Y-101322142D01*
X145391190Y-101703095D01*
X144867380Y-100226904D02*
X144867380Y-100703095D01*
X145343571Y-100750714D01*
X145295952Y-100703095D01*
X145248333Y-100607857D01*
X145248333Y-100369761D01*
X145295952Y-100274523D01*
X145343571Y-100226904D01*
X145438809Y-100179285D01*
X145676904Y-100179285D01*
X145772142Y-100226904D01*
X145819761Y-100274523D01*
X145867380Y-100369761D01*
X145867380Y-100607857D01*
X145819761Y-100703095D01*
X145772142Y-100750714D01*
%TO.C,R4*%
X166838333Y-87492380D02*
X166505000Y-87016190D01*
X166266904Y-87492380D02*
X166266904Y-86492380D01*
X166647857Y-86492380D01*
X166743095Y-86540000D01*
X166790714Y-86587619D01*
X166838333Y-86682857D01*
X166838333Y-86825714D01*
X166790714Y-86920952D01*
X166743095Y-86968571D01*
X166647857Y-87016190D01*
X166266904Y-87016190D01*
X167695476Y-86825714D02*
X167695476Y-87492380D01*
X167457380Y-86444761D02*
X167219285Y-87159047D01*
X167838333Y-87159047D01*
%TO.C,R3*%
X161123333Y-87492380D02*
X160790000Y-87016190D01*
X160551904Y-87492380D02*
X160551904Y-86492380D01*
X160932857Y-86492380D01*
X161028095Y-86540000D01*
X161075714Y-86587619D01*
X161123333Y-86682857D01*
X161123333Y-86825714D01*
X161075714Y-86920952D01*
X161028095Y-86968571D01*
X160932857Y-87016190D01*
X160551904Y-87016190D01*
X161456666Y-86492380D02*
X162075714Y-86492380D01*
X161742380Y-86873333D01*
X161885238Y-86873333D01*
X161980476Y-86920952D01*
X162028095Y-86968571D01*
X162075714Y-87063809D01*
X162075714Y-87301904D01*
X162028095Y-87397142D01*
X161980476Y-87444761D01*
X161885238Y-87492380D01*
X161599523Y-87492380D01*
X161504285Y-87444761D01*
X161456666Y-87397142D01*
%TO.C,R2*%
X129373333Y-80462380D02*
X129040000Y-79986190D01*
X128801904Y-80462380D02*
X128801904Y-79462380D01*
X129182857Y-79462380D01*
X129278095Y-79510000D01*
X129325714Y-79557619D01*
X129373333Y-79652857D01*
X129373333Y-79795714D01*
X129325714Y-79890952D01*
X129278095Y-79938571D01*
X129182857Y-79986190D01*
X128801904Y-79986190D01*
X129754285Y-79557619D02*
X129801904Y-79510000D01*
X129897142Y-79462380D01*
X130135238Y-79462380D01*
X130230476Y-79510000D01*
X130278095Y-79557619D01*
X130325714Y-79652857D01*
X130325714Y-79748095D01*
X130278095Y-79890952D01*
X129706666Y-80462380D01*
X130325714Y-80462380D01*
%TO.C,R1*%
X134453333Y-80462380D02*
X134120000Y-79986190D01*
X133881904Y-80462380D02*
X133881904Y-79462380D01*
X134262857Y-79462380D01*
X134358095Y-79510000D01*
X134405714Y-79557619D01*
X134453333Y-79652857D01*
X134453333Y-79795714D01*
X134405714Y-79890952D01*
X134358095Y-79938571D01*
X134262857Y-79986190D01*
X133881904Y-79986190D01*
X135405714Y-80462380D02*
X134834285Y-80462380D01*
X135120000Y-80462380D02*
X135120000Y-79462380D01*
X135024761Y-79605238D01*
X134929523Y-79700476D01*
X134834285Y-79748095D01*
%TO.C,J7*%
X177042380Y-73993333D02*
X177756666Y-73993333D01*
X177899523Y-74040952D01*
X177994761Y-74136190D01*
X178042380Y-74279047D01*
X178042380Y-74374285D01*
X177042380Y-73612380D02*
X177042380Y-72945714D01*
X178042380Y-73374285D01*
%TO.C,J5*%
X159682380Y-122253333D02*
X160396666Y-122253333D01*
X160539523Y-122300952D01*
X160634761Y-122396190D01*
X160682380Y-122539047D01*
X160682380Y-122634285D01*
X159682380Y-121300952D02*
X159682380Y-121777142D01*
X160158571Y-121824761D01*
X160110952Y-121777142D01*
X160063333Y-121681904D01*
X160063333Y-121443809D01*
X160110952Y-121348571D01*
X160158571Y-121300952D01*
X160253809Y-121253333D01*
X160491904Y-121253333D01*
X160587142Y-121300952D01*
X160634761Y-121348571D01*
X160682380Y-121443809D01*
X160682380Y-121681904D01*
X160634761Y-121777142D01*
X160587142Y-121824761D01*
%TO.C,J4*%
X136822380Y-122253333D02*
X137536666Y-122253333D01*
X137679523Y-122300952D01*
X137774761Y-122396190D01*
X137822380Y-122539047D01*
X137822380Y-122634285D01*
X137155714Y-121348571D02*
X137822380Y-121348571D01*
X136774761Y-121586666D02*
X137489047Y-121824761D01*
X137489047Y-121205714D01*
%TO.C,J2*%
X169632380Y-94313333D02*
X170346666Y-94313333D01*
X170489523Y-94360952D01*
X170584761Y-94456190D01*
X170632380Y-94599047D01*
X170632380Y-94694285D01*
X169727619Y-93884761D02*
X169680000Y-93837142D01*
X169632380Y-93741904D01*
X169632380Y-93503809D01*
X169680000Y-93408571D01*
X169727619Y-93360952D01*
X169822857Y-93313333D01*
X169918095Y-93313333D01*
X170060952Y-93360952D01*
X170632380Y-93932380D01*
X170632380Y-93313333D01*
%TO.C,J1*%
X169712380Y-109553333D02*
X170426666Y-109553333D01*
X170569523Y-109600952D01*
X170664761Y-109696190D01*
X170712380Y-109839047D01*
X170712380Y-109934285D01*
X170712380Y-108553333D02*
X170712380Y-109124761D01*
X170712380Y-108839047D02*
X169712380Y-108839047D01*
X169855238Y-108934285D01*
X169950476Y-109029523D01*
X169998095Y-109124761D01*
%TO.C,C19*%
X170537142Y-118752857D02*
X170584761Y-118800476D01*
X170632380Y-118943333D01*
X170632380Y-119038571D01*
X170584761Y-119181428D01*
X170489523Y-119276666D01*
X170394285Y-119324285D01*
X170203809Y-119371904D01*
X170060952Y-119371904D01*
X169870476Y-119324285D01*
X169775238Y-119276666D01*
X169680000Y-119181428D01*
X169632380Y-119038571D01*
X169632380Y-118943333D01*
X169680000Y-118800476D01*
X169727619Y-118752857D01*
X170632380Y-117800476D02*
X170632380Y-118371904D01*
X170632380Y-118086190D02*
X169632380Y-118086190D01*
X169775238Y-118181428D01*
X169870476Y-118276666D01*
X169918095Y-118371904D01*
X170632380Y-117324285D02*
X170632380Y-117133809D01*
X170584761Y-117038571D01*
X170537142Y-116990952D01*
X170394285Y-116895714D01*
X170203809Y-116848095D01*
X169822857Y-116848095D01*
X169727619Y-116895714D01*
X169680000Y-116943333D01*
X169632380Y-117038571D01*
X169632380Y-117229047D01*
X169680000Y-117324285D01*
X169727619Y-117371904D01*
X169822857Y-117419523D01*
X170060952Y-117419523D01*
X170156190Y-117371904D01*
X170203809Y-117324285D01*
X170251428Y-117229047D01*
X170251428Y-117038571D01*
X170203809Y-116943333D01*
X170156190Y-116895714D01*
X170060952Y-116848095D01*
%TO.C,C18*%
X161877142Y-105747142D02*
X161829523Y-105794761D01*
X161686666Y-105842380D01*
X161591428Y-105842380D01*
X161448571Y-105794761D01*
X161353333Y-105699523D01*
X161305714Y-105604285D01*
X161258095Y-105413809D01*
X161258095Y-105270952D01*
X161305714Y-105080476D01*
X161353333Y-104985238D01*
X161448571Y-104890000D01*
X161591428Y-104842380D01*
X161686666Y-104842380D01*
X161829523Y-104890000D01*
X161877142Y-104937619D01*
X162829523Y-105842380D02*
X162258095Y-105842380D01*
X162543809Y-105842380D02*
X162543809Y-104842380D01*
X162448571Y-104985238D01*
X162353333Y-105080476D01*
X162258095Y-105128095D01*
X163400952Y-105270952D02*
X163305714Y-105223333D01*
X163258095Y-105175714D01*
X163210476Y-105080476D01*
X163210476Y-105032857D01*
X163258095Y-104937619D01*
X163305714Y-104890000D01*
X163400952Y-104842380D01*
X163591428Y-104842380D01*
X163686666Y-104890000D01*
X163734285Y-104937619D01*
X163781904Y-105032857D01*
X163781904Y-105080476D01*
X163734285Y-105175714D01*
X163686666Y-105223333D01*
X163591428Y-105270952D01*
X163400952Y-105270952D01*
X163305714Y-105318571D01*
X163258095Y-105366190D01*
X163210476Y-105461428D01*
X163210476Y-105651904D01*
X163258095Y-105747142D01*
X163305714Y-105794761D01*
X163400952Y-105842380D01*
X163591428Y-105842380D01*
X163686666Y-105794761D01*
X163734285Y-105747142D01*
X163781904Y-105651904D01*
X163781904Y-105461428D01*
X163734285Y-105366190D01*
X163686666Y-105318571D01*
X163591428Y-105270952D01*
%TO.C,C17*%
X146677142Y-108307142D02*
X146629523Y-108354761D01*
X146486666Y-108402380D01*
X146391428Y-108402380D01*
X146248571Y-108354761D01*
X146153333Y-108259523D01*
X146105714Y-108164285D01*
X146058095Y-107973809D01*
X146058095Y-107830952D01*
X146105714Y-107640476D01*
X146153333Y-107545238D01*
X146248571Y-107450000D01*
X146391428Y-107402380D01*
X146486666Y-107402380D01*
X146629523Y-107450000D01*
X146677142Y-107497619D01*
X147629523Y-108402380D02*
X147058095Y-108402380D01*
X147343809Y-108402380D02*
X147343809Y-107402380D01*
X147248571Y-107545238D01*
X147153333Y-107640476D01*
X147058095Y-107688095D01*
X147962857Y-107402380D02*
X148629523Y-107402380D01*
X148200952Y-108402380D01*
%TO.C,C16*%
X152757142Y-118752857D02*
X152804761Y-118800476D01*
X152852380Y-118943333D01*
X152852380Y-119038571D01*
X152804761Y-119181428D01*
X152709523Y-119276666D01*
X152614285Y-119324285D01*
X152423809Y-119371904D01*
X152280952Y-119371904D01*
X152090476Y-119324285D01*
X151995238Y-119276666D01*
X151900000Y-119181428D01*
X151852380Y-119038571D01*
X151852380Y-118943333D01*
X151900000Y-118800476D01*
X151947619Y-118752857D01*
X152852380Y-117800476D02*
X152852380Y-118371904D01*
X152852380Y-118086190D02*
X151852380Y-118086190D01*
X151995238Y-118181428D01*
X152090476Y-118276666D01*
X152138095Y-118371904D01*
X151852380Y-116943333D02*
X151852380Y-117133809D01*
X151900000Y-117229047D01*
X151947619Y-117276666D01*
X152090476Y-117371904D01*
X152280952Y-117419523D01*
X152661904Y-117419523D01*
X152757142Y-117371904D01*
X152804761Y-117324285D01*
X152852380Y-117229047D01*
X152852380Y-117038571D01*
X152804761Y-116943333D01*
X152757142Y-116895714D01*
X152661904Y-116848095D01*
X152423809Y-116848095D01*
X152328571Y-116895714D01*
X152280952Y-116943333D01*
X152233333Y-117038571D01*
X152233333Y-117229047D01*
X152280952Y-117324285D01*
X152328571Y-117371904D01*
X152423809Y-117419523D01*
%TO.C,C15*%
X113657142Y-96242142D02*
X113609523Y-96289761D01*
X113466666Y-96337380D01*
X113371428Y-96337380D01*
X113228571Y-96289761D01*
X113133333Y-96194523D01*
X113085714Y-96099285D01*
X113038095Y-95908809D01*
X113038095Y-95765952D01*
X113085714Y-95575476D01*
X113133333Y-95480238D01*
X113228571Y-95385000D01*
X113371428Y-95337380D01*
X113466666Y-95337380D01*
X113609523Y-95385000D01*
X113657142Y-95432619D01*
X114609523Y-96337380D02*
X114038095Y-96337380D01*
X114323809Y-96337380D02*
X114323809Y-95337380D01*
X114228571Y-95480238D01*
X114133333Y-95575476D01*
X114038095Y-95623095D01*
X115514285Y-95337380D02*
X115038095Y-95337380D01*
X114990476Y-95813571D01*
X115038095Y-95765952D01*
X115133333Y-95718333D01*
X115371428Y-95718333D01*
X115466666Y-95765952D01*
X115514285Y-95813571D01*
X115561904Y-95908809D01*
X115561904Y-96146904D01*
X115514285Y-96242142D01*
X115466666Y-96289761D01*
X115371428Y-96337380D01*
X115133333Y-96337380D01*
X115038095Y-96289761D01*
X114990476Y-96242142D01*
%TO.C,C14*%
X113657142Y-106402142D02*
X113609523Y-106449761D01*
X113466666Y-106497380D01*
X113371428Y-106497380D01*
X113228571Y-106449761D01*
X113133333Y-106354523D01*
X113085714Y-106259285D01*
X113038095Y-106068809D01*
X113038095Y-105925952D01*
X113085714Y-105735476D01*
X113133333Y-105640238D01*
X113228571Y-105545000D01*
X113371428Y-105497380D01*
X113466666Y-105497380D01*
X113609523Y-105545000D01*
X113657142Y-105592619D01*
X114609523Y-106497380D02*
X114038095Y-106497380D01*
X114323809Y-106497380D02*
X114323809Y-105497380D01*
X114228571Y-105640238D01*
X114133333Y-105735476D01*
X114038095Y-105783095D01*
X115466666Y-105830714D02*
X115466666Y-106497380D01*
X115228571Y-105449761D02*
X114990476Y-106164047D01*
X115609523Y-106164047D01*
%TO.C,C13*%
X138787142Y-119427857D02*
X138834761Y-119475476D01*
X138882380Y-119618333D01*
X138882380Y-119713571D01*
X138834761Y-119856428D01*
X138739523Y-119951666D01*
X138644285Y-119999285D01*
X138453809Y-120046904D01*
X138310952Y-120046904D01*
X138120476Y-119999285D01*
X138025238Y-119951666D01*
X137930000Y-119856428D01*
X137882380Y-119713571D01*
X137882380Y-119618333D01*
X137930000Y-119475476D01*
X137977619Y-119427857D01*
X138882380Y-118475476D02*
X138882380Y-119046904D01*
X138882380Y-118761190D02*
X137882380Y-118761190D01*
X138025238Y-118856428D01*
X138120476Y-118951666D01*
X138168095Y-119046904D01*
X137882380Y-118142142D02*
X137882380Y-117523095D01*
X138263333Y-117856428D01*
X138263333Y-117713571D01*
X138310952Y-117618333D01*
X138358571Y-117570714D01*
X138453809Y-117523095D01*
X138691904Y-117523095D01*
X138787142Y-117570714D01*
X138834761Y-117618333D01*
X138882380Y-117713571D01*
X138882380Y-117999285D01*
X138834761Y-118094523D01*
X138787142Y-118142142D01*
%TO.C,C10*%
X126087142Y-112402857D02*
X126134761Y-112450476D01*
X126182380Y-112593333D01*
X126182380Y-112688571D01*
X126134761Y-112831428D01*
X126039523Y-112926666D01*
X125944285Y-112974285D01*
X125753809Y-113021904D01*
X125610952Y-113021904D01*
X125420476Y-112974285D01*
X125325238Y-112926666D01*
X125230000Y-112831428D01*
X125182380Y-112688571D01*
X125182380Y-112593333D01*
X125230000Y-112450476D01*
X125277619Y-112402857D01*
X126182380Y-111450476D02*
X126182380Y-112021904D01*
X126182380Y-111736190D02*
X125182380Y-111736190D01*
X125325238Y-111831428D01*
X125420476Y-111926666D01*
X125468095Y-112021904D01*
X125182380Y-110831428D02*
X125182380Y-110736190D01*
X125230000Y-110640952D01*
X125277619Y-110593333D01*
X125372857Y-110545714D01*
X125563333Y-110498095D01*
X125801428Y-110498095D01*
X125991904Y-110545714D01*
X126087142Y-110593333D01*
X126134761Y-110640952D01*
X126182380Y-110736190D01*
X126182380Y-110831428D01*
X126134761Y-110926666D01*
X126087142Y-110974285D01*
X125991904Y-111021904D01*
X125801428Y-111069523D01*
X125563333Y-111069523D01*
X125372857Y-111021904D01*
X125277619Y-110974285D01*
X125230000Y-110926666D01*
X125182380Y-110831428D01*
%TO.C,C11*%
X142597142Y-118752857D02*
X142644761Y-118800476D01*
X142692380Y-118943333D01*
X142692380Y-119038571D01*
X142644761Y-119181428D01*
X142549523Y-119276666D01*
X142454285Y-119324285D01*
X142263809Y-119371904D01*
X142120952Y-119371904D01*
X141930476Y-119324285D01*
X141835238Y-119276666D01*
X141740000Y-119181428D01*
X141692380Y-119038571D01*
X141692380Y-118943333D01*
X141740000Y-118800476D01*
X141787619Y-118752857D01*
X142692380Y-117800476D02*
X142692380Y-118371904D01*
X142692380Y-118086190D02*
X141692380Y-118086190D01*
X141835238Y-118181428D01*
X141930476Y-118276666D01*
X141978095Y-118371904D01*
X142692380Y-116848095D02*
X142692380Y-117419523D01*
X142692380Y-117133809D02*
X141692380Y-117133809D01*
X141835238Y-117229047D01*
X141930476Y-117324285D01*
X141978095Y-117419523D01*
%TO.C,C9*%
X156043333Y-104497142D02*
X155995714Y-104544761D01*
X155852857Y-104592380D01*
X155757619Y-104592380D01*
X155614761Y-104544761D01*
X155519523Y-104449523D01*
X155471904Y-104354285D01*
X155424285Y-104163809D01*
X155424285Y-104020952D01*
X155471904Y-103830476D01*
X155519523Y-103735238D01*
X155614761Y-103640000D01*
X155757619Y-103592380D01*
X155852857Y-103592380D01*
X155995714Y-103640000D01*
X156043333Y-103687619D01*
X156519523Y-104592380D02*
X156710000Y-104592380D01*
X156805238Y-104544761D01*
X156852857Y-104497142D01*
X156948095Y-104354285D01*
X156995714Y-104163809D01*
X156995714Y-103782857D01*
X156948095Y-103687619D01*
X156900476Y-103640000D01*
X156805238Y-103592380D01*
X156614761Y-103592380D01*
X156519523Y-103640000D01*
X156471904Y-103687619D01*
X156424285Y-103782857D01*
X156424285Y-104020952D01*
X156471904Y-104116190D01*
X156519523Y-104163809D01*
X156614761Y-104211428D01*
X156805238Y-104211428D01*
X156900476Y-104163809D01*
X156948095Y-104116190D01*
X156995714Y-104020952D01*
%TO.C,C8*%
X152233333Y-84177142D02*
X152185714Y-84224761D01*
X152042857Y-84272380D01*
X151947619Y-84272380D01*
X151804761Y-84224761D01*
X151709523Y-84129523D01*
X151661904Y-84034285D01*
X151614285Y-83843809D01*
X151614285Y-83700952D01*
X151661904Y-83510476D01*
X151709523Y-83415238D01*
X151804761Y-83320000D01*
X151947619Y-83272380D01*
X152042857Y-83272380D01*
X152185714Y-83320000D01*
X152233333Y-83367619D01*
X152804761Y-83700952D02*
X152709523Y-83653333D01*
X152661904Y-83605714D01*
X152614285Y-83510476D01*
X152614285Y-83462857D01*
X152661904Y-83367619D01*
X152709523Y-83320000D01*
X152804761Y-83272380D01*
X152995238Y-83272380D01*
X153090476Y-83320000D01*
X153138095Y-83367619D01*
X153185714Y-83462857D01*
X153185714Y-83510476D01*
X153138095Y-83605714D01*
X153090476Y-83653333D01*
X152995238Y-83700952D01*
X152804761Y-83700952D01*
X152709523Y-83748571D01*
X152661904Y-83796190D01*
X152614285Y-83891428D01*
X152614285Y-84081904D01*
X152661904Y-84177142D01*
X152709523Y-84224761D01*
X152804761Y-84272380D01*
X152995238Y-84272380D01*
X153090476Y-84224761D01*
X153138095Y-84177142D01*
X153185714Y-84081904D01*
X153185714Y-83891428D01*
X153138095Y-83796190D01*
X153090476Y-83748571D01*
X152995238Y-83700952D01*
%TO.C,C7*%
X166497142Y-82101666D02*
X166544761Y-82149285D01*
X166592380Y-82292142D01*
X166592380Y-82387380D01*
X166544761Y-82530238D01*
X166449523Y-82625476D01*
X166354285Y-82673095D01*
X166163809Y-82720714D01*
X166020952Y-82720714D01*
X165830476Y-82673095D01*
X165735238Y-82625476D01*
X165640000Y-82530238D01*
X165592380Y-82387380D01*
X165592380Y-82292142D01*
X165640000Y-82149285D01*
X165687619Y-82101666D01*
X165592380Y-81768333D02*
X165592380Y-81101666D01*
X166592380Y-81530238D01*
%TO.C,C6*%
X160357142Y-82756666D02*
X160404761Y-82804285D01*
X160452380Y-82947142D01*
X160452380Y-83042380D01*
X160404761Y-83185238D01*
X160309523Y-83280476D01*
X160214285Y-83328095D01*
X160023809Y-83375714D01*
X159880952Y-83375714D01*
X159690476Y-83328095D01*
X159595238Y-83280476D01*
X159500000Y-83185238D01*
X159452380Y-83042380D01*
X159452380Y-82947142D01*
X159500000Y-82804285D01*
X159547619Y-82756666D01*
X159452380Y-81899523D02*
X159452380Y-82090000D01*
X159500000Y-82185238D01*
X159547619Y-82232857D01*
X159690476Y-82328095D01*
X159880952Y-82375714D01*
X160261904Y-82375714D01*
X160357142Y-82328095D01*
X160404761Y-82280476D01*
X160452380Y-82185238D01*
X160452380Y-81994761D01*
X160404761Y-81899523D01*
X160357142Y-81851904D01*
X160261904Y-81804285D01*
X160023809Y-81804285D01*
X159928571Y-81851904D01*
X159880952Y-81899523D01*
X159833333Y-81994761D01*
X159833333Y-82185238D01*
X159880952Y-82280476D01*
X159928571Y-82328095D01*
X160023809Y-82375714D01*
%TO.C,C5*%
X169338333Y-100667142D02*
X169290714Y-100714761D01*
X169147857Y-100762380D01*
X169052619Y-100762380D01*
X168909761Y-100714761D01*
X168814523Y-100619523D01*
X168766904Y-100524285D01*
X168719285Y-100333809D01*
X168719285Y-100190952D01*
X168766904Y-100000476D01*
X168814523Y-99905238D01*
X168909761Y-99810000D01*
X169052619Y-99762380D01*
X169147857Y-99762380D01*
X169290714Y-99810000D01*
X169338333Y-99857619D01*
X170243095Y-99762380D02*
X169766904Y-99762380D01*
X169719285Y-100238571D01*
X169766904Y-100190952D01*
X169862142Y-100143333D01*
X170100238Y-100143333D01*
X170195476Y-100190952D01*
X170243095Y-100238571D01*
X170290714Y-100333809D01*
X170290714Y-100571904D01*
X170243095Y-100667142D01*
X170195476Y-100714761D01*
X170100238Y-100762380D01*
X169862142Y-100762380D01*
X169766904Y-100714761D01*
X169719285Y-100667142D01*
%TO.C,C4*%
X129413333Y-82907142D02*
X129365714Y-82954761D01*
X129222857Y-83002380D01*
X129127619Y-83002380D01*
X128984761Y-82954761D01*
X128889523Y-82859523D01*
X128841904Y-82764285D01*
X128794285Y-82573809D01*
X128794285Y-82430952D01*
X128841904Y-82240476D01*
X128889523Y-82145238D01*
X128984761Y-82050000D01*
X129127619Y-82002380D01*
X129222857Y-82002380D01*
X129365714Y-82050000D01*
X129413333Y-82097619D01*
X130270476Y-82335714D02*
X130270476Y-83002380D01*
X130032380Y-81954761D02*
X129794285Y-82669047D01*
X130413333Y-82669047D01*
%TO.C,C3*%
X133183333Y-95627142D02*
X133135714Y-95674761D01*
X132992857Y-95722380D01*
X132897619Y-95722380D01*
X132754761Y-95674761D01*
X132659523Y-95579523D01*
X132611904Y-95484285D01*
X132564285Y-95293809D01*
X132564285Y-95150952D01*
X132611904Y-94960476D01*
X132659523Y-94865238D01*
X132754761Y-94770000D01*
X132897619Y-94722380D01*
X132992857Y-94722380D01*
X133135714Y-94770000D01*
X133183333Y-94817619D01*
X133516666Y-94722380D02*
X134135714Y-94722380D01*
X133802380Y-95103333D01*
X133945238Y-95103333D01*
X134040476Y-95150952D01*
X134088095Y-95198571D01*
X134135714Y-95293809D01*
X134135714Y-95531904D01*
X134088095Y-95627142D01*
X134040476Y-95674761D01*
X133945238Y-95722380D01*
X133659523Y-95722380D01*
X133564285Y-95674761D01*
X133516666Y-95627142D01*
%TO.C,C2*%
X129413333Y-91817142D02*
X129365714Y-91864761D01*
X129222857Y-91912380D01*
X129127619Y-91912380D01*
X128984761Y-91864761D01*
X128889523Y-91769523D01*
X128841904Y-91674285D01*
X128794285Y-91483809D01*
X128794285Y-91340952D01*
X128841904Y-91150476D01*
X128889523Y-91055238D01*
X128984761Y-90960000D01*
X129127619Y-90912380D01*
X129222857Y-90912380D01*
X129365714Y-90960000D01*
X129413333Y-91007619D01*
X129794285Y-91007619D02*
X129841904Y-90960000D01*
X129937142Y-90912380D01*
X130175238Y-90912380D01*
X130270476Y-90960000D01*
X130318095Y-91007619D01*
X130365714Y-91102857D01*
X130365714Y-91198095D01*
X130318095Y-91340952D01*
X129746666Y-91912380D01*
X130365714Y-91912380D01*
%TD*%
M02*
