M48
; DRILL file {KiCad 5.1.6-c6e7f7d~87~ubuntu16.04.1} date Mon Jul 20 15:11:53 2020
; FORMAT={-:-/ absolute / inch / decimal}
; #@! TF.CreationDate,2020-07-20T15:11:53+09:00
; #@! TF.GenerationSoftware,Kicad,Pcbnew,5.1.6-c6e7f7d~87~ubuntu16.04.1
FMAT,2
INCH
T1C0.0157
T2C0.0276
T3C0.0315
T4C0.0394
T5C0.0591
T6C0.0598
T7C0.0669
T8C0.0787
%
G90
G05
T1
X4.55Y-3.075
X4.575Y-4.25
X4.725Y-4.25
X4.8Y-3.8
X4.8Y-4.05
X4.8Y-4.05
X5.075Y-3.2
X5.1002Y-4.0498
X5.2Y-3.2
X5.3Y-4.1
X5.35Y-3.95
X5.35Y-4.15
X5.4Y-3.5
X5.4724Y-3.4055
X5.4724Y-3.6024
X5.725Y-3.95
X5.775Y-3.9
X5.775Y-4.125
X5.8Y-3.3
X5.8Y-3.4
X5.8Y-3.6
X5.8Y-3.675
X5.8042Y-3.5208
X5.8235Y-3.9578
X5.9Y-3.8
X5.9215Y-3.6
X5.9785Y-3.6
X5.9843Y-3.9567
X6.0Y-3.3
X6.0Y-3.425
X6.0Y-3.8
X6.025Y-3.575
X6.025Y-3.725
X6.05Y-4.325
X6.1Y-4.575
X6.15Y-4.325
X6.2Y-3.3
X6.2Y-3.425
X6.2Y-4.325
X6.275Y-3.75
X6.295Y-3.355
X6.3Y-3.95
X6.3Y-4.05
X6.3Y-4.575
X6.3504Y-3.75
X6.425Y-3.6
X6.525Y-3.6
T2
X5.25Y-3.05
X5.35Y-3.05
X4.9Y-4.1
X4.9Y-4.2
X6.525Y-3.5
X6.625Y-3.5
X5.05Y-3.05
X5.15Y-3.05
X6.3Y-3.5
X6.4Y-3.5
X5.725Y-4.075
X5.725Y-4.175
T3
X5.9031Y-4.25
X6.1Y-4.25
X5.3Y-4.4516
X5.3Y-4.55
X4.6016Y-4.0
X4.7Y-4.0
X4.9Y-3.025
X4.9Y-3.2219
X6.575Y-4.05
X6.7719Y-4.05
X5.6Y-4.325
X5.6Y-4.5219
X5.05Y-4.275
X5.05Y-4.4719
X5.175Y-3.9
X5.175Y-4.0
X5.175Y-4.1
X5.175Y-4.2
X5.475Y-3.9
X5.475Y-4.0
X5.475Y-4.1
X5.475Y-4.2
X5.85Y-4.45
X5.85Y-4.5484
X6.3Y-4.25
X6.4969Y-4.25
X5.0031Y-3.35
X5.2Y-3.35
X6.475Y-3.7
X6.475Y-3.9
X5.2031Y-3.65
X5.4Y-3.65
X6.75Y-3.1766
X6.75Y-3.275
X5.8531Y-4.1
X6.05Y-4.1
X6.4Y-3.1531
X6.4Y-3.35
X4.6016Y-3.6
X4.7Y-3.6
X5.0031Y-3.5
X5.2Y-3.5
X6.55Y-4.45
X6.55Y-4.5484
X5.9031Y-3.4
X6.1Y-3.4
X4.9Y-3.8031
X4.9Y-4.0
T4
X5.05Y-3.9
X5.05Y-4.0
X5.05Y-4.1
X5.5Y-4.8
X5.6Y-4.8
X5.7Y-4.8
X5.8Y-4.8
X5.9Y-4.8
X6.0Y-4.8
X6.1Y-4.8
X6.2Y-4.8
X6.2Y-2.9
X6.3Y-2.9
X6.4Y-2.9
X6.5Y-2.9
X6.6Y-2.9
X6.7Y-2.9
X6.8Y-2.9
X6.9Y-2.9
X6.4Y-4.8
X6.5Y-4.8
X6.6Y-4.8
X6.7Y-4.8
X6.8Y-4.8
X6.9Y-4.8
X5.6Y-3.975
X5.6Y-4.075
X5.6Y-4.175
X5.14Y-2.9
X5.24Y-2.9
X5.34Y-2.9
X5.44Y-2.9
X5.54Y-2.9
X5.64Y-2.9
X5.74Y-2.9
X5.84Y-2.9
X5.94Y-2.9
X6.04Y-2.9
T5
X5.65Y-3.375
X6.25Y-3.85
X5.65Y-3.575
X6.25Y-3.075
X5.65Y-3.775
X6.25Y-3.65
X6.9Y-4.3
T6
X6.9Y-3.6
X6.9Y-3.8
T7
X6.8Y-4.2
X6.8Y-4.4
X7.0Y-4.2
X7.0Y-4.4
T8
X4.5713Y-4.439
X4.5713Y-4.6555
X4.65Y-4.75
T0
M30
